<svg xmlns="http://www.w3.org/2000/svg" xmlns:xlink="http://www.w3.org/1999/xlink" width="238" height="204" viewBox="0 0 238 204"><defs><path id="a" d="M0 0v204h96.277c-.172-.295-.277-.634-.277-1v-4c0-1.104.896-2 2-2h3c1.104 0 2 .896 2 2v4c0 .366-.105.705-.277 1h10.555c-.172-.295-.277-.634-.277-1v-4c0-1.104.897-2 2-2h3c1.105 0 2 .896 2 2v4c0 .366-.104.705-.276 1h10.555c-.173-.295-.278-.634-.278-1v-4c0-1.104.896-2 2-2h3c1.104 0 2 .896 2 2v4c0 .366-.105.705-.277 1h27.555c-.172-.295-.277-.634-.277-1v-4c0-1.104.896-2 2-2h3c1.104 0 2 .896 2 2v4c0 .366-.105.705-.277 1h27.555c-.17-.295-.276-.634-.276-1v-4c0-1.104.896-2 2-2h3c1.104 0 2 .896 2 2v4c0 .366-.105.705-.277 1H238V0H0z"/></defs><clipPath id="b"><use xlink:href="#a" overflow="visible"/></clipPath><g clip-path="url(#b)"><path fill="#3D85CC" d="M63.53 195.518l-2.642-1.527 1.496-5.485-6.915 6.977 2.642 1.527-1.496 5.485"/></g><g clip-path="url(#b)"><path fill="#3D85CC" d="M80.53 195.518l-2.642-1.527 1.496-5.485-6.915 6.977 2.642 1.527-1.496 5.485"/></g><g clip-path="url(#b)"><path fill="#3D85CC" d="M97.53 195.518l-2.642-1.527 1.496-5.485-6.915 6.977 2.642 1.527-1.496 5.485"/></g><g clip-path="url(#b)"><path fill="#3D85CC" d="M114.53 195.518l-2.642-1.527 1.496-5.485-6.915 6.977 2.642 1.527-1.496 5.485"/></g><g clip-path="url(#b)"><path fill="#A0A0A0" d="M131.53 195.518l-2.642-1.527 1.496-5.485-6.915 6.977 2.642 1.527-1.496 5.485"/></g><g clip-path="url(#b)"><path fill="#9600FF" d="M148.53 195.518l-2.642-1.527 1.496-5.485-6.915 6.977 2.642 1.527-1.496 5.485"/></g><g clip-path="url(#b)"><path fill="#9600FF" d="M165.53 195.518l-2.642-1.527 1.496-5.485-6.915 6.977 2.642 1.527-1.496 5.485"/></g><g clip-path="url(#b)"><path fill="#C90" d="M182.53 195.518l-2.642-1.527 1.496-5.485-6.915 6.977 2.642 1.527-1.496 5.485"/></g><g clip-path="url(#b)"><path fill="#C90" d="M199.53 195.518l-2.642-1.527 1.496-5.485-6.915 6.977 2.642 1.527-1.496 5.485"/></g><g clip-path="url(#b)"><path fill="#7DA01F" d="M216.53 195.518l-2.642-1.527 1.496-5.485-6.915 6.977 2.642 1.527-1.496 5.485"/></g><g clip-path="url(#b)"><path fill="#7DA01F" d="M233.53 195.518l-2.642-1.527 1.496-5.485-6.915 6.977 2.642 1.527-1.496 5.485"/></g><g><path fill="#3D85CC" d="M73.074 200.52l.958-3.51-2.643-1.528 4.955-5 .54-1.977-6.916 6.977 2.642 1.527-1.496 5.485M107.074 200.52l.958-3.51-2.643-1.528 4.955-5 .54-1.977-6.916 6.977 2.642 1.527-1.496 5.485"/><path fill="#7DA01F" d="M226.074 200.52l.958-3.51-2.643-1.528 4.955-5 .54-1.977-6.916 6.977 2.642 1.527-1.496 5.485"/></g><g><path fill="#3D85CC" d="M100 198h-1c-1.104 0-2 .896-2 2v3c0 .553.447 1 1 1h3c.553 0 1-.447 1-1v-3c0-1.104-.896-2-2-2zm-.5 5c-.276 0-.5-.224-.5-.5s.224-.5.5-.5.5.224.5.5-.224.5-.5.5zm1.5-2h-3v-.5c0-.828.672-1.5 1.5-1.5s1.5.672 1.5 1.5v.5zM117 198h-1c-1.104 0-2 .896-2 2v3c0 .553.447 1 1 1h3c.553 0 1-.447 1-1v-3c0-1.104-.896-2-2-2zm-.5 5c-.276 0-.5-.224-.5-.5s.224-.5.5-.5.5.224.5.5-.224.5-.5.5zm1.5-2h-3v-.5c0-.828.672-1.5 1.5-1.5s1.5.672 1.5 1.5v.5z"/><path fill="#A0A0A0" d="M134 198h-1c-1.104 0-2 .896-2 2v3c0 .553.447 1 1 1h3c.553 0 1-.447 1-1v-3c0-1.104-.896-2-2-2zm-.5 5c-.276 0-.5-.224-.5-.5s.224-.5.5-.5.5.224.5.5-.224.5-.5.5zm1.5-2h-3v-.5c0-.828.672-1.5 1.5-1.5s1.5.672 1.5 1.5v.5z"/><path fill="#9600FF" d="M168 198h-1c-1.104 0-2 .896-2 2v3c0 .553.447 1 1 1h3c.553 0 1-.447 1-1v-3c0-1.104-.896-2-2-2zm-.5 5c-.276 0-.5-.224-.5-.5s.224-.5.5-.5.5.224.5.5-.224.5-.5.5zm1.5-2h-3v-.5c0-.828.672-1.5 1.5-1.5s1.5.672 1.5 1.5v.5z"/><path fill="#C90" d="M202 198h-1c-1.104 0-2 .896-2 2v3c0 .553.447 1 1 1h3c.553 0 1-.447 1-1v-3c0-1.104-.896-2-2-2zm-.5 5c-.276 0-.5-.224-.5-.5s.224-.5.5-.5.5.224.5.5-.224.5-.5.5zm1.5-2h-3v-.5c0-.828.672-1.5 1.5-1.5s1.5.672 1.5 1.5v.5z"/></g><g><defs><path id="c" d="M0 0v204h238V0H0zm103 186c0 1.104-.896 2-2 2h-3c-1.104 0-2-.896-2-2v-4c0-1.104.896-2 2-2h3c1.104 0 2 .896 2 2v4zm17 0c0 1.104-.896 2-2 2h-3c-1.104 0-2-.896-2-2v-4c0-1.104.896-2 2-2h3c1.104 0 2 .896 2 2v4zm17 0c0 1.104-.896 2-2 2h-3c-1.104 0-2-.896-2-2v-4c0-1.104.896-2 2-2h3c1.104 0 2 .896 2 2v4zm34 0c0 1.104-.896 2-2 2h-3c-1.104 0-2-.896-2-2v-4c0-1.104.896-2 2-2h3c1.104 0 2 .896 2 2v4zm34 0c0 1.104-.896 2-2 2h-3c-1.104 0-2-.896-2-2v-4c0-1.104.896-2 2-2h3c1.104 0 2 .896 2 2v4z"/></defs><clipPath id="d"><use xlink:href="#c" overflow="visible"/></clipPath><g clip-path="url(#d)"><path fill="#3D85CC" d="M63 173h-7c-1.104 0-2 .896-2 2v7c0 1.104.896 2 2 2h7c1.104 0 2-.896 2-2v-7c0-1.104-.896-2-2-2zm-5 9v-7l4.5 3.5L58 182z"/></g><g clip-path="url(#d)"><path fill="#3D85CC" d="M80 173h-7c-1.104 0-2 .896-2 2v7c0 1.104.896 2 2 2h7c1.104 0 2-.896 2-2v-7c0-1.104-.896-2-2-2zm-5 9v-7l4.5 3.5L75 182z"/></g><g clip-path="url(#d)"><path fill="#3D85CC" d="M97 173h-7c-1.104 0-2 .896-2 2v7c0 1.104.896 2 2 2h7c1.104 0 2-.896 2-2v-7c0-1.104-.896-2-2-2zm-5 9v-7l4.5 3.5L92 182z"/></g><g clip-path="url(#d)"><path fill="#3D85CC" d="M114 173h-7c-1.104 0-2 .896-2 2v7c0 1.104.896 2 2 2h7c1.104 0 2-.896 2-2v-7c0-1.104-.896-2-2-2zm-5 9v-7l4.5 3.5-4.5 3.5z"/></g><g clip-path="url(#d)"><path fill="#A0A0A0" d="M131 173h-7c-1.104 0-2 .896-2 2v7c0 1.104.896 2 2 2h7c1.104 0 2-.896 2-2v-7c0-1.104-.896-2-2-2zm-5 9v-7l4.5 3.5-4.5 3.5z"/></g><g clip-path="url(#d)"><path fill="#9600FF" d="M148 173h-7c-1.104 0-2 .896-2 2v7c0 1.104.896 2 2 2h7c1.104 0 2-.896 2-2v-7c0-1.104-.896-2-2-2zm-5 9v-7l4.5 3.5-4.5 3.5z"/></g><g clip-path="url(#d)"><path fill="#9600FF" d="M165 173h-7c-1.104 0-2 .896-2 2v7c0 1.104.896 2 2 2h7c1.104 0 2-.896 2-2v-7c0-1.104-.896-2-2-2zm-5 9v-7l4.5 3.5-4.5 3.5z"/></g><g clip-path="url(#d)"><path fill="#C90" d="M182 173h-7c-1.104 0-2 .896-2 2v7c0 1.104.896 2 2 2h7c1.104 0 2-.896 2-2v-7c0-1.104-.896-2-2-2zm-5 9v-7l4.5 3.5-4.5 3.5z"/></g><g clip-path="url(#d)"><path fill="#C90" d="M199 173h-7c-1.104 0-2 .896-2 2v7c0 1.104.896 2 2 2h7c1.104 0 2-.896 2-2v-7c0-1.104-.896-2-2-2zm-5 9v-7l4.5 3.5-4.5 3.5z"/></g><g clip-path="url(#d)"><path fill="#7DA01F" d="M216 173h-7c-1.104 0-2 .896-2 2v7c0 1.104.896 2 2 2h7c1.104 0 2-.896 2-2v-7c0-1.104-.896-2-2-2zm1 9c0 .553-.447 1-1 1h-7c-.553 0-1-.447-1-1v-7c0-.553.447-1 1-1h7c.553 0 1 .447 1 1v7zm-6 0l4.5-3.5-4.5-3.5v7z"/></g><g clip-path="url(#d)"><path fill="#7DA01F" d="M233 173h-7c-1.104 0-2 .896-2 2v7c0 1.104.896 2 2 2h7c1.104 0 2-.896 2-2v-7c0-1.104-.896-2-2-2zm1 9c0 .553-.447 1-1 1h-7c-.553 0-1-.447-1-1v-7c0-.553.447-1 1-1h7c.553 0 1 .447 1 1v7zm-6 0l4.5-3.5-4.5-3.5v7z"/></g><g><path fill="#3D85CC" d="M70 183v-9c0-.356.1-.687.265-.977-.992.118-1.765.953-1.765 1.977v7c0 1.023.772 1.858 1.765 1.977-.164-.29-.265-.62-.265-.977zM104 183v-9c0-.356.1-.687.265-.977-.992.118-1.765.953-1.765 1.977v7c0 1.023.772 1.858 1.765 1.977-.164-.29-.265-.62-.265-.977z"/><path fill="#7DA01F" d="M223 183v-9c0-.356.102-.687.265-.977-.992.118-1.765.953-1.765 1.977v7c0 1.023.772 1.858 1.765 1.977-.163-.29-.265-.62-.265-.977z"/></g><g><path fill="#3D85CC" d="M100 181h-1c-1.104 0-2 .896-2 2v3c0 .553.447 1 1 1h3c.553 0 1-.447 1-1v-3c0-1.104-.896-2-2-2zm-.5 5c-.276 0-.5-.224-.5-.5s.224-.5.5-.5.5.224.5.5-.224.5-.5.5zm1.5-2h-3v-.5c0-.828.672-1.5 1.5-1.5s1.5.672 1.5 1.5v.5zM117 181h-1c-1.104 0-2 .896-2 2v3c0 .553.447 1 1 1h3c.553 0 1-.447 1-1v-3c0-1.104-.896-2-2-2zm-.5 5c-.276 0-.5-.224-.5-.5s.224-.5.5-.5.5.224.5.5-.224.5-.5.5zm1.5-2h-3v-.5c0-.828.672-1.5 1.5-1.5s1.5.672 1.5 1.5v.5z"/><path fill="#A0A0A0" d="M134 181h-1c-1.104 0-2 .896-2 2v3c0 .553.447 1 1 1h3c.553 0 1-.447 1-1v-3c0-1.104-.896-2-2-2zm-.5 5c-.276 0-.5-.224-.5-.5s.224-.5.5-.5.5.224.5.5-.224.5-.5.5zm1.5-2h-3v-.5c0-.828.672-1.5 1.5-1.5s1.5.672 1.5 1.5v.5z"/><path fill="#9600FF" d="M168 181h-1c-1.104 0-2 .896-2 2v3c0 .553.447 1 1 1h3c.553 0 1-.447 1-1v-3c0-1.104-.896-2-2-2zm-.5 5c-.276 0-.5-.224-.5-.5s.224-.5.5-.5.5.224.5.5-.224.5-.5.5zm1.5-2h-3v-.5c0-.828.672-1.5 1.5-1.5s1.5.672 1.5 1.5v.5z"/><path fill="#CD9B06" d="M202 181h-1c-1.104 0-2 .896-2 2v3c0 .553.447 1 1 1h3c.553 0 1-.447 1-1v-3c0-1.104-.896-2-2-2zm-.5 5c-.276 0-.5-.224-.5-.5s.224-.5.5-.5.5.224.5.5-.224.5-.5.5zm1.5-2h-3v-.5c0-.828.672-1.5 1.5-1.5s1.5.672 1.5 1.5v.5z"/></g></g><g><defs><path id="e" d="M0 0v204h238V0H0zm103 169c0 1.104-.896 2-2 2h-3c-1.104 0-2-.896-2-2v-4c0-1.104.896-2 2-2h3c1.104 0 2 .896 2 2v4zm17 0c0 1.104-.896 2-2 2h-3c-1.104 0-2-.896-2-2v-4c0-1.104.896-2 2-2h3c1.104 0 2 .896 2 2v4zm17 0c0 1.104-.896 2-2 2h-3c-1.104 0-2-.896-2-2v-4c0-1.104.896-2 2-2h3c1.104 0 2 .896 2 2v4zm34 0c0 1.104-.896 2-2 2h-3c-1.104 0-2-.896-2-2v-4c0-1.104.896-2 2-2h3c1.104 0 2 .896 2 2v4zm34 0c0 1.104-.896 2-2 2h-3c-1.104 0-2-.896-2-2v-4c0-1.104.896-2 2-2h3c1.104 0 2 .896 2 2v4z"/></defs><clipPath id="f"><use xlink:href="#e" overflow="visible"/></clipPath><g clip-path="url(#f)"><path fill="#3D85CC" d="M63 156h-7c-1.104 0-2 .896-2 2v7c0 1.104.896 2 2 2h7c1.104 0 2-.896 2-2v-7c0-1.104-.896-2-2-2z"/></g><g clip-path="url(#f)"><path fill="#3D85CC" d="M80 156h-7c-1.104 0-2 .896-2 2v7c0 1.104.896 2 2 2h7c1.104 0 2-.896 2-2v-7c0-1.104-.896-2-2-2z"/></g><g clip-path="url(#f)"><path fill="#3D85CC" d="M97 156h-7c-1.104 0-2 .896-2 2v7c0 1.104.896 2 2 2h7c1.104 0 2-.896 2-2v-7c0-1.104-.896-2-2-2z"/></g><g clip-path="url(#f)"><path fill="#3D85CC" d="M114 156h-7c-1.104 0-2 .896-2 2v7c0 1.104.896 2 2 2h7c1.104 0 2-.896 2-2v-7c0-1.104-.896-2-2-2z"/></g><g clip-path="url(#f)"><path fill="#A0A0A0" d="M131 156h-7c-1.104 0-2 .896-2 2v7c0 1.104.896 2 2 2h7c1.104 0 2-.896 2-2v-7c0-1.104-.896-2-2-2z"/></g><g clip-path="url(#f)"><path fill="#9600FF" d="M148 156h-7c-1.104 0-2 .896-2 2v7c0 1.104.896 2 2 2h7c1.104 0 2-.896 2-2v-7c0-1.104-.896-2-2-2z"/></g><g clip-path="url(#f)"><path fill="#9600FF" d="M165 156h-7c-1.104 0-2 .896-2 2v7c0 1.104.896 2 2 2h7c1.104 0 2-.896 2-2v-7c0-1.104-.896-2-2-2z"/></g><g clip-path="url(#f)"><path fill="#C90" d="M182 156h-7c-1.104 0-2 .896-2 2v7c0 1.104.896 2 2 2h7c1.104 0 2-.896 2-2v-7c0-1.104-.896-2-2-2z"/></g><g clip-path="url(#f)"><path fill="#C90" d="M199 156h-7c-1.104 0-2 .896-2 2v7c0 1.104.896 2 2 2h7c1.104 0 2-.896 2-2v-7c0-1.104-.896-2-2-2z"/></g><g clip-path="url(#f)"><path fill="#7DA01F" d="M216 156h-7c-1.104 0-2 .896-2 2v7c0 1.104.896 2 2 2h7c1.104 0 2-.896 2-2v-7c0-1.104-.896-2-2-2zm1 9c0 .553-.447 1-1 1h-7c-.553 0-1-.447-1-1v-7c0-.553.447-1 1-1h7c.553 0 1 .447 1 1v7z"/></g><g clip-path="url(#f)"><path fill="#7DA01F" d="M233 156h-7c-1.104 0-2 .896-2 2v7c0 1.104.896 2 2 2h7c1.104 0 2-.896 2-2v-7c0-1.104-.896-2-2-2zm1 9c0 .553-.447 1-1 1h-7c-.553 0-1-.447-1-1v-7c0-.553.447-1 1-1h7c.553 0 1 .447 1 1v7z"/></g><g><path fill="#3D85CC" d="M70 166v-9c0-.356.1-.687.265-.977-.992.118-1.765.953-1.765 1.977v7c0 1.023.772 1.858 1.765 1.977-.164-.29-.265-.62-.265-.977zM104 166v-9c0-.356.1-.687.265-.977-.992.118-1.765.953-1.765 1.977v7c0 1.023.772 1.858 1.765 1.977-.164-.29-.265-.62-.265-.977z"/><path fill="#7DA01F" d="M223 166v-9c0-.356.102-.687.265-.977-.992.118-1.765.953-1.765 1.977v7c0 1.023.772 1.858 1.765 1.977-.163-.29-.265-.62-.265-.977z"/></g><g><path fill="#3D85CC" d="M100 164h-1c-1.104 0-2 .896-2 2v3c0 .553.447 1 1 1h3c.553 0 1-.447 1-1v-3c0-1.104-.896-2-2-2zm-.5 5c-.276 0-.5-.224-.5-.5s.224-.5.5-.5.5.224.5.5-.224.5-.5.5zm1.5-2h-3v-.5c0-.828.672-1.5 1.5-1.5s1.5.672 1.5 1.5v.5zM117 164h-1c-1.104 0-2 .896-2 2v3c0 .553.447 1 1 1h3c.553 0 1-.447 1-1v-3c0-1.104-.896-2-2-2zm-.5 5c-.276 0-.5-.224-.5-.5s.224-.5.5-.5.5.224.5.5-.224.5-.5.5zm1.5-2h-3v-.5c0-.828.672-1.5 1.5-1.5s1.5.672 1.5 1.5v.5z"/><path fill="#A0A0A0" d="M134 164h-1c-1.104 0-2 .896-2 2v3c0 .553.447 1 1 1h3c.553 0 1-.447 1-1v-3c0-1.104-.896-2-2-2zm-.5 5c-.276 0-.5-.224-.5-.5s.224-.5.5-.5.5.224.5.5-.224.5-.5.5zm1.5-2h-3v-.5c0-.828.672-1.5 1.5-1.5s1.5.672 1.5 1.5v.5z"/><path fill="#9600FF" d="M168 164h-1c-1.104 0-2 .896-2 2v3c0 .553.447 1 1 1h3c.553 0 1-.447 1-1v-3c0-1.104-.896-2-2-2zm-.5 5c-.276 0-.5-.224-.5-.5s.224-.5.5-.5.5.224.5.5-.224.5-.5.5zm1.5-2h-3v-.5c0-.828.672-1.5 1.5-1.5s1.5.672 1.5 1.5v.5z"/><path fill="#C90" d="M202 164h-1c-1.104 0-2 .896-2 2v3c0 .553.447 1 1 1h3c.553 0 1-.447 1-1v-3c0-1.104-.896-2-2-2zm-.5 5c-.276 0-.5-.224-.5-.5s.224-.5.5-.5.5.224.5.5-.224.5-.5.5zm1.5-2h-3v-.5c0-.828.672-1.5 1.5-1.5s1.5.672 1.5 1.5v.5z"/></g></g><g><defs><path id="g" d="M0 0v204h238V0H0zm103 152c0 1.104-.896 2-2 2h-3c-1.104 0-2-.896-2-2v-4c0-1.104.896-2 2-2h3c1.104 0 2 .896 2 2v4zm17 0c0 1.104-.896 2-2 2h-3c-1.104 0-2-.896-2-2v-4c0-1.104.896-2 2-2h3c1.104 0 2 .896 2 2v4zm17 0c0 1.104-.896 2-2 2h-3c-1.104 0-2-.896-2-2v-4c0-1.104.896-2 2-2h3c1.104 0 2 .896 2 2v4zm34 0c0 1.104-.896 2-2 2h-3c-1.104 0-2-.896-2-2v-4c0-1.104.896-2 2-2h3c1.104 0 2 .896 2 2v4zm34 0c0 1.104-.896 2-2 2h-3c-1.104 0-2-.896-2-2v-4c0-1.104.896-2 2-2h3c1.104 0 2 .896 2 2v4z"/></defs><clipPath id="h"><use xlink:href="#g" overflow="visible"/></clipPath><g clip-path="url(#h)"><path fill="#4DA6FF" d="M63.53 144.518l-2.642-1.527 1.496-5.485-6.915 6.977 2.642 1.527-1.496 5.485"/></g><g clip-path="url(#h)"><path fill="#4DA6FF" d="M80.53 144.518l-2.642-1.527 1.496-5.485-6.915 6.977 2.642 1.527-1.496 5.485"/></g><g clip-path="url(#h)"><path fill="#4DA6FF" d="M97.53 144.518l-2.642-1.527 1.496-5.485-6.915 6.977 2.642 1.527-1.496 5.485"/></g><g clip-path="url(#h)"><path fill="#4DA6FF" d="M114.53 144.518l-2.642-1.527 1.496-5.485-6.915 6.977 2.642 1.527-1.496 5.485"/></g><g clip-path="url(#h)"><path fill="#A0A0A0" d="M131.53 144.518l-2.642-1.527 1.496-5.485-6.915 6.977 2.642 1.527-1.496 5.485"/></g><g clip-path="url(#h)"><path fill="#9600FF" d="M148.53 144.518l-2.642-1.527 1.496-5.485-6.915 6.977 2.642 1.527-1.496 5.485"/></g><g clip-path="url(#h)"><path fill="#9600FF" d="M165.53 144.518l-2.642-1.527 1.496-5.485-6.915 6.977 2.642 1.527-1.496 5.485"/></g><g clip-path="url(#h)"><path fill="#C90" d="M182.53 144.518l-2.642-1.527 1.496-5.485-6.915 6.977 2.642 1.527-1.496 5.485"/></g><g clip-path="url(#h)"><path fill="#C90" d="M199.53 144.518l-2.642-1.527 1.496-5.485-6.915 6.977 2.642 1.527-1.496 5.485"/></g><g clip-path="url(#h)"><path fill="#7DA01F" d="M216.53 144.518l-2.642-1.527 1.496-5.485-6.915 6.977 2.642 1.527-1.496 5.485"/></g><g clip-path="url(#h)"><path fill="#7DA01F" d="M233.53 144.518l-2.642-1.527 1.496-5.485-6.915 6.977 2.642 1.527-1.496 5.485"/></g><g><path fill="#4DA6FF" d="M73.074 149.52l.958-3.51-2.643-1.528 4.955-5 .54-1.977-6.916 6.977 2.642 1.527-1.496 5.485M107.074 149.52l.958-3.51-2.643-1.528 4.955-5 .54-1.977-6.916 6.977 2.642 1.527-1.496 5.485"/><path fill="#7DA01F" d="M226.074 149.52l.958-3.51-2.643-1.528 4.955-5 .54-1.977-6.916 6.977 2.642 1.527-1.496 5.485"/></g><g><path fill="#4DA6FF" d="M117 147h-1c-1.104 0-2 .896-2 2v3c0 .553.447 1 1 1h3c.553 0 1-.447 1-1v-3c0-1.104-.896-2-2-2zm-.5 5c-.276 0-.5-.224-.5-.5s.224-.5.5-.5.5.224.5.5-.224.5-.5.5zm1.5-2h-3v-.5c0-.828.672-1.5 1.5-1.5s1.5.672 1.5 1.5v.5zM100 147h-1c-1.104 0-2 .896-2 2v3c0 .553.447 1 1 1h3c.553 0 1-.447 1-1v-3c0-1.104-.896-2-2-2zm-.5 5c-.276 0-.5-.224-.5-.5s.224-.5.5-.5.5.224.5.5-.224.5-.5.5zm1.5-2h-3v-.5c0-.828.672-1.5 1.5-1.5s1.5.672 1.5 1.5v.5z"/><path fill="#A0A0A0" d="M134 147h-1c-1.104 0-2 .896-2 2v3c0 .553.447 1 1 1h3c.553 0 1-.447 1-1v-3c0-1.104-.896-2-2-2zm-.5 5c-.276 0-.5-.224-.5-.5s.224-.5.5-.5.5.224.5.5-.224.5-.5.5zm1.5-2h-3v-.5c0-.828.672-1.5 1.5-1.5s1.5.672 1.5 1.5v.5z"/><path fill="#9600FF" d="M168 147h-1c-1.104 0-2 .896-2 2v3c0 .553.447 1 1 1h3c.553 0 1-.447 1-1v-3c0-1.104-.896-2-2-2zm-.5 5c-.276 0-.5-.224-.5-.5s.224-.5.5-.5.5.224.5.5-.224.5-.5.5zm1.5-2h-3v-.5c0-.828.672-1.5 1.5-1.5s1.5.672 1.5 1.5v.5z"/><path fill="#C90" d="M202 147h-1c-1.104 0-2 .896-2 2v3c0 .553.447 1 1 1h3c.553 0 1-.447 1-1v-3c0-1.104-.896-2-2-2zm-.5 5c-.276 0-.5-.224-.5-.5s.224-.5.5-.5.5.224.5.5-.224.5-.5.5zm1.5-2h-3v-.5c0-.828.672-1.5 1.5-1.5s1.5.672 1.5 1.5v.5z"/></g></g><g><defs><path id="i" d="M0 0v204h238V0H0zm103 135c0 1.104-.896 2-2 2h-3c-1.104 0-2-.896-2-2v-4c0-1.104.896-2 2-2h3c1.104 0 2 .896 2 2v4zm17 0c0 1.104-.896 2-2 2h-3c-1.104 0-2-.896-2-2v-4c0-1.104.896-2 2-2h3c1.104 0 2 .896 2 2v4zm17 0c0 1.104-.896 2-2 2h-3c-1.104 0-2-.896-2-2v-4c0-1.104.896-2 2-2h3c1.104 0 2 .896 2 2v4zm34 0c0 1.104-.896 2-2 2h-3c-1.104 0-2-.896-2-2v-4c0-1.104.896-2 2-2h3c1.104 0 2 .896 2 2v4zm34 0c0 1.104-.896 2-2 2h-3c-1.104 0-2-.896-2-2v-4c0-1.104.896-2 2-2h3c1.104 0 2 .896 2 2v4z"/></defs><clipPath id="j"><use xlink:href="#i" overflow="visible"/></clipPath><g clip-path="url(#j)"><path fill="#4DA6FF" d="M59.5 122c-3.037 0-5.5 2.463-5.5 5.5s2.463 5.5 5.5 5.5 5.5-2.463 5.5-5.5-2.463-5.5-5.5-5.5zm-1.5 4h-1v3h1v1h-1c-.553 0-1-.447-1-1v-3c0-.553.447-1 1-1h1v1zm5 3c0 .553-.447 1-1 1h-1v-1h1v-3h-1v-1h1c.553 0 1 .447 1 1v3z"/></g><g clip-path="url(#j)"><path fill="#4DA6FF" d="M76.5 122c-3.037 0-5.5 2.463-5.5 5.5s2.463 5.5 5.5 5.5 5.5-2.463 5.5-5.5-2.463-5.5-5.5-5.5zm-1.5 4h-1v3h1v1h-1c-.553 0-1-.447-1-1v-3c0-.553.447-1 1-1h1v1zm5 3c0 .553-.447 1-1 1h-1v-1h1v-3h-1v-1h1c.553 0 1 .447 1 1v3z"/></g><g clip-path="url(#j)"><path fill="#4DA6FF" d="M93.5 122c-3.037 0-5.5 2.463-5.5 5.5s2.463 5.5 5.5 5.5 5.5-2.463 5.5-5.5-2.463-5.5-5.5-5.5zm-1.5 4h-1v3h1v1h-1c-.553 0-1-.447-1-1v-3c0-.553.447-1 1-1h1v1zm5 3c0 .553-.447 1-1 1h-1v-1h1v-3h-1v-1h1c.553 0 1 .447 1 1v3z"/></g><g clip-path="url(#j)"><path fill="#4DA6FF" d="M110.5 122c-3.037 0-5.5 2.463-5.5 5.5s2.463 5.5 5.5 5.5 5.5-2.463 5.5-5.5-2.463-5.5-5.5-5.5zm-1.5 4h-1v3h1v1h-1c-.553 0-1-.447-1-1v-3c0-.553.447-1 1-1h1v1zm5 3c0 .553-.447 1-1 1h-1v-1h1v-3h-1v-1h1c.553 0 1 .447 1 1v3z"/></g><g clip-path="url(#j)"><path fill="#A0A0A0" d="M127.5 122c-3.037 0-5.5 2.463-5.5 5.5s2.463 5.5 5.5 5.5 5.5-2.463 5.5-5.5-2.463-5.5-5.5-5.5zm-1.5 4h-1v3h1v1h-1c-.553 0-1-.447-1-1v-3c0-.553.447-1 1-1h1v1zm5 3c0 .553-.447 1-1 1h-1v-1h1v-3h-1v-1h1c.553 0 1 .447 1 1v3z"/></g><g clip-path="url(#j)"><path fill="#9600FF" d="M144.5 122c-3.037 0-5.5 2.463-5.5 5.5s2.463 5.5 5.5 5.5 5.5-2.463 5.5-5.5-2.463-5.5-5.5-5.5zm-1.5 4h-1v3h1v1h-1c-.553 0-1-.447-1-1v-3c0-.553.447-1 1-1h1v1zm5 3c0 .553-.447 1-1 1h-1v-1h1v-3h-1v-1h1c.553 0 1 .447 1 1v3z"/></g><g clip-path="url(#j)"><path fill="#9600FF" d="M161.5 122c-3.037 0-5.5 2.463-5.5 5.5s2.463 5.5 5.5 5.5 5.5-2.463 5.5-5.5-2.463-5.5-5.5-5.5zm-1.5 4h-1v3h1v1h-1c-.553 0-1-.447-1-1v-3c0-.553.447-1 1-1h1v1zm5 3c0 .553-.447 1-1 1h-1v-1h1v-3h-1v-1h1c.553 0 1 .447 1 1v3z"/></g><g clip-path="url(#j)"><path fill="#C90" d="M178.5 122c-3.037 0-5.5 2.463-5.5 5.5s2.463 5.5 5.5 5.5 5.5-2.463 5.5-5.5-2.463-5.5-5.5-5.5zm-1.5 4h-1v3h1v1h-1c-.553 0-1-.447-1-1v-3c0-.553.447-1 1-1h1v1zm5 3c0 .553-.447 1-1 1h-1v-1h1v-3h-1v-1h1c.553 0 1 .447 1 1v3z"/></g><g clip-path="url(#j)"><path fill="#C90" d="M195.5 122c-3.038 0-5.5 2.463-5.5 5.5s2.462 5.5 5.5 5.5c3.037 0 5.5-2.463 5.5-5.5s-2.463-5.5-5.5-5.5zm-1.5 4h-1v3h1v1h-1c-.553 0-1-.447-1-1v-3c0-.553.447-1 1-1h1v1zm5 3c0 .553-.447 1-1 1h-1v-1h1v-3h-1v-1h1c.553 0 1 .447 1 1v3z"/></g><g clip-path="url(#j)"><path fill="#7DA01F" d="M212.5 121c-3.59 0-6.5 2.91-6.5 6.5s2.91 6.5 6.5 6.5 6.5-2.91 6.5-6.5-2.91-6.5-6.5-6.5zm0 12c-3.037 0-5.5-2.463-5.5-5.5s2.463-5.5 5.5-5.5 5.5 2.463 5.5 5.5-2.463 5.5-5.5 5.5zm-3.5-7v3c0 .553.447 1 1 1h1v-1h-1v-3h1v-1h-1c-.553 0-1 .447-1 1zm6-1h-1v1h1v3h-1v1h1c.553 0 1-.447 1-1v-3c0-.553-.447-1-1-1z"/></g><g clip-path="url(#j)"><path fill="#7DA01F" d="M229.5 121c-3.59 0-6.5 2.91-6.5 6.5s2.91 6.5 6.5 6.5 6.5-2.91 6.5-6.5-2.91-6.5-6.5-6.5zm0 12c-3.037 0-5.5-2.463-5.5-5.5s2.463-5.5 5.5-5.5 5.5 2.463 5.5 5.5-2.463 5.5-5.5 5.5zm-3.5-7v3c0 .553.447 1 1 1h1v-1h-1v-3h1v-1h-1c-.553 0-1 .447-1 1zm6-1h-1v1h1v3h-1v1h1c.553 0 1-.447 1-1v-3c0-.553-.447-1-1-1z"/></g><g><path fill="#4DA6FF" d="M70 127.5c0-2.233 1.127-4.203 2.843-5.373-2.477.535-4.333 2.736-4.333 5.373s1.856 4.838 4.333 5.373c-1.716-1.17-2.843-3.14-2.843-5.373zM104 127.5c0-2.233 1.127-4.203 2.843-5.373-2.477.535-4.333 2.736-4.333 5.373s1.856 4.838 4.333 5.373c-1.716-1.17-2.843-3.14-2.843-5.373z"/><path fill="#7DA01F" d="M222 127.5c0-2.464 1.192-4.643 3.026-6.01-2.362.974-4.026 3.296-4.026 6.01s1.664 5.036 4.026 6.01c-1.834-1.367-3.026-3.546-3.026-6.01z"/></g><g><path fill="#4DA6FF" d="M117 130h-1c-1.104 0-2 .896-2 2v3c0 .553.447 1 1 1h3c.553 0 1-.447 1-1v-3c0-1.104-.896-2-2-2zm-.5 5c-.276 0-.5-.224-.5-.5s.224-.5.5-.5.5.224.5.5-.224.5-.5.5zm1.5-2h-3v-.5c0-.828.672-1.5 1.5-1.5s1.5.672 1.5 1.5v.5zM100 130h-1c-1.104 0-2 .896-2 2v3c0 .553.447 1 1 1h3c.553 0 1-.447 1-1v-3c0-1.104-.896-2-2-2zm-.5 5c-.276 0-.5-.224-.5-.5s.224-.5.5-.5.5.224.5.5-.224.5-.5.5zm1.5-2h-3v-.5c0-.828.672-1.5 1.5-1.5s1.5.672 1.5 1.5v.5z"/><path fill="#A0A0A0" d="M134 130h-1c-1.104 0-2 .896-2 2v3c0 .553.447 1 1 1h3c.553 0 1-.447 1-1v-3c0-1.104-.896-2-2-2zm-.5 5c-.276 0-.5-.224-.5-.5s.224-.5.5-.5.5.224.5.5-.224.5-.5.5zm1.5-2h-3v-.5c0-.828.672-1.5 1.5-1.5s1.5.672 1.5 1.5v.5z"/><path fill="#9600FF" d="M168 130h-1c-1.104 0-2 .896-2 2v3c0 .553.447 1 1 1h3c.553 0 1-.447 1-1v-3c0-1.104-.896-2-2-2zm-.5 5c-.276 0-.5-.224-.5-.5s.224-.5.5-.5.5.224.5.5-.224.5-.5.5zm1.5-2h-3v-.5c0-.828.672-1.5 1.5-1.5s1.5.672 1.5 1.5v.5z"/><path fill="#C90" d="M202 130h-1c-1.104 0-2 .896-2 2v3c0 .553.447 1 1 1h3c.553 0 1-.447 1-1v-3c0-1.104-.896-2-2-2zm-.5 5c-.276 0-.5-.224-.5-.5s.224-.5.5-.5.5.224.5.5-.224.5-.5.5zm1.5-2h-3v-.5c0-.828.672-1.5 1.5-1.5s1.5.672 1.5 1.5v.5z"/></g></g><g><defs><path id="k" d="M0 0v204h238V0H0zm103 118c0 1.104-.896 2-2 2h-3c-1.104 0-2-.896-2-2v-4c0-1.104.896-2 2-2h3c1.104 0 2 .896 2 2v4zm17 0c0 1.104-.896 2-2 2h-3c-1.104 0-2-.896-2-2v-4c0-1.104.896-2 2-2h3c1.104 0 2 .896 2 2v4zm17 0c0 1.104-.896 2-2 2h-3c-1.104 0-2-.896-2-2v-4c0-1.104.896-2 2-2h3c1.104 0 2 .896 2 2v4zm34 0c0 1.104-.896 2-2 2h-3c-1.104 0-2-.896-2-2v-4c0-1.104.896-2 2-2h3c1.104 0 2 .896 2 2v4zm34 0c0 1.104-.896 2-2 2h-3c-1.104 0-2-.896-2-2v-4c0-1.104.896-2 2-2h3c1.104 0 2 .896 2 2v4z"/></defs><clipPath id="l"><use xlink:href="#k" overflow="visible"/></clipPath><g clip-path="url(#l)"><path fill="#4DA6FF" d="M59.5 105c-3.037 0-5.5 2.463-5.5 5.5s2.463 5.5 5.5 5.5 5.5-2.463 5.5-5.5-2.463-5.5-5.5-5.5zm.93 6.43c-.113 1.48-.484 2.57-.93 2.57s-.816-1.092-.93-2.57c-1.48-.113-2.57-.484-2.57-.93s1.092-.816 2.57-.93c.113-1.48.484-2.57.93-2.57s.816 1.092.93 2.57c1.48.113 2.57.484 2.57.93s-1.092.816-2.57.93z"/></g><g clip-path="url(#l)"><path fill="#4DA6FF" d="M76.5 105c-3.037 0-5.5 2.463-5.5 5.5s2.463 5.5 5.5 5.5 5.5-2.463 5.5-5.5-2.463-5.5-5.5-5.5zm.93 6.43c-.113 1.48-.484 2.57-.93 2.57s-.816-1.092-.93-2.57c-1.48-.113-2.57-.484-2.57-.93s1.092-.816 2.57-.93c.113-1.48.484-2.57.93-2.57s.816 1.092.93 2.57c1.48.113 2.57.484 2.57.93s-1.092.816-2.57.93z"/></g><g clip-path="url(#l)"><path fill="#4DA6FF" d="M93.5 105c-3.037 0-5.5 2.463-5.5 5.5s2.463 5.5 5.5 5.5 5.5-2.463 5.5-5.5-2.463-5.5-5.5-5.5zm.93 6.43c-.113 1.48-.484 2.57-.93 2.57s-.816-1.092-.93-2.57c-1.48-.113-2.57-.484-2.57-.93s1.092-.816 2.57-.93c.113-1.48.484-2.57.93-2.57s.816 1.092.93 2.57c1.48.113 2.57.484 2.57.93s-1.092.816-2.57.93z"/></g><g clip-path="url(#l)"><path fill="#4DA6FF" d="M110.5 105c-3.037 0-5.5 2.463-5.5 5.5s2.463 5.5 5.5 5.5 5.5-2.463 5.5-5.5-2.463-5.5-5.5-5.5zm.93 6.43c-.113 1.48-.484 2.57-.93 2.57s-.816-1.092-.93-2.57c-1.48-.113-2.57-.484-2.57-.93s1.092-.816 2.57-.93c.113-1.48.484-2.57.93-2.57s.816 1.092.93 2.57c1.48.113 2.57.484 2.57.93s-1.092.816-2.57.93z"/></g><g clip-path="url(#l)"><path fill="#A0A0A0" d="M127.5 105c-3.037 0-5.5 2.463-5.5 5.5s2.463 5.5 5.5 5.5 5.5-2.463 5.5-5.5-2.463-5.5-5.5-5.5zm.93 6.43c-.113 1.48-.484 2.57-.93 2.57s-.816-1.092-.93-2.57c-1.48-.113-2.57-.484-2.57-.93s1.092-.816 2.57-.93c.113-1.48.484-2.57.93-2.57s.816 1.092.93 2.57c1.48.113 2.57.484 2.57.93s-1.092.816-2.57.93z"/></g><g clip-path="url(#l)"><path fill="#9600FF" d="M144.5 105c-3.037 0-5.5 2.463-5.5 5.5s2.463 5.5 5.5 5.5 5.5-2.463 5.5-5.5-2.463-5.5-5.5-5.5zm.93 6.43c-.113 1.48-.484 2.57-.93 2.57s-.816-1.092-.93-2.57c-1.48-.113-2.57-.484-2.57-.93s1.092-.816 2.57-.93c.113-1.48.484-2.57.93-2.57s.816 1.092.93 2.57c1.48.113 2.57.484 2.57.93s-1.092.816-2.57.93z"/></g><g clip-path="url(#l)"><path fill="#9600FF" d="M161.5 105c-3.037 0-5.5 2.463-5.5 5.5s2.463 5.5 5.5 5.5 5.5-2.463 5.5-5.5-2.463-5.5-5.5-5.5zm.93 6.43c-.113 1.48-.484 2.57-.93 2.57s-.816-1.092-.93-2.57c-1.48-.113-2.57-.484-2.57-.93s1.092-.816 2.57-.93c.113-1.48.484-2.57.93-2.57s.816 1.092.93 2.57c1.48.113 2.57.484 2.57.93s-1.092.816-2.57.93z"/></g><g clip-path="url(#l)"><path fill="#C90" d="M178.5 105c-3.037 0-5.5 2.463-5.5 5.5s2.463 5.5 5.5 5.5 5.5-2.463 5.5-5.5-2.463-5.5-5.5-5.5zm.93 6.43c-.113 1.48-.484 2.57-.93 2.57s-.816-1.092-.93-2.57c-1.48-.113-2.57-.484-2.57-.93s1.092-.816 2.57-.93c.113-1.48.484-2.57.93-2.57s.816 1.092.93 2.57c1.48.113 2.57.484 2.57.93s-1.092.816-2.57.93z"/></g><g clip-path="url(#l)"><path fill="#C90" d="M195.5 105c-3.038 0-5.5 2.463-5.5 5.5s2.462 5.5 5.5 5.5c3.037 0 5.5-2.463 5.5-5.5s-2.463-5.5-5.5-5.5zm.93 6.43c-.113 1.48-.484 2.57-.93 2.57s-.816-1.092-.93-2.57c-1.48-.113-2.57-.484-2.57-.93s1.092-.816 2.57-.93c.113-1.48.484-2.57.93-2.57s.816 1.092.93 2.57c1.48.113 2.57.484 2.57.93s-1.092.816-2.57.93z"/></g><g clip-path="url(#l)"><path fill="#7DA01F" d="M213.43 109.57c-.113-1.48-.484-2.57-.93-2.57s-.816 1.092-.93 2.57c-1.48.113-2.57.484-2.57.93s1.092.816 2.57.93c.113 1.48.484 2.57.93 2.57s.816-1.092.93-2.57c1.48-.113 2.57-.484 2.57-.93s-1.092-.816-2.57-.93zm-.93-5.57c-3.59 0-6.5 2.91-6.5 6.5s2.91 6.5 6.5 6.5 6.5-2.91 6.5-6.5-2.91-6.5-6.5-6.5zm0 12c-3.037 0-5.5-2.463-5.5-5.5s2.463-5.5 5.5-5.5 5.5 2.463 5.5 5.5-2.463 5.5-5.5 5.5z"/></g><g clip-path="url(#l)"><path fill="#7DA01F" d="M229.5 104c-3.59 0-6.5 2.91-6.5 6.5s2.91 6.5 6.5 6.5 6.5-2.91 6.5-6.5-2.91-6.5-6.5-6.5zm0 12c-3.037 0-5.5-2.463-5.5-5.5s2.463-5.5 5.5-5.5 5.5 2.463 5.5 5.5-2.463 5.5-5.5 5.5zm.93-6.43c-.113-1.48-.484-2.57-.93-2.57s-.816 1.092-.93 2.57c-1.48.113-2.57.484-2.57.93s1.092.816 2.57.93c.113 1.48.484 2.57.93 2.57s.816-1.092.93-2.57c1.48-.113 2.57-.484 2.57-.93s-1.092-.816-2.57-.93z"/></g><g><path fill="#4DA6FF" d="M70 110.5c0-2.233 1.127-4.203 2.843-5.373-2.477.535-4.333 2.736-4.333 5.373s1.856 4.838 4.333 5.373c-1.716-1.17-2.843-3.14-2.843-5.373zM104 110.5c0-2.233 1.127-4.203 2.843-5.373-2.477.535-4.333 2.736-4.333 5.373s1.856 4.838 4.333 5.373c-1.716-1.17-2.843-3.14-2.843-5.373z"/><path fill="#7DA01F" d="M222 110.5c0-2.464 1.192-4.643 3.026-6.01-2.362.974-4.026 3.296-4.026 6.01s1.664 5.036 4.026 6.01c-1.834-1.367-3.026-3.546-3.026-6.01z"/></g><g><path fill="#4DA6FF" d="M100 113h-1c-1.104 0-2 .896-2 2v3c0 .553.447 1 1 1h3c.553 0 1-.447 1-1v-3c0-1.104-.896-2-2-2zm-.5 5c-.276 0-.5-.224-.5-.5s.224-.5.5-.5.5.224.5.5-.224.5-.5.5zm1.5-2h-3v-.5c0-.828.672-1.5 1.5-1.5s1.5.672 1.5 1.5v.5zM117 113h-1c-1.104 0-2 .896-2 2v3c0 .553.447 1 1 1h3c.553 0 1-.447 1-1v-3c0-1.104-.896-2-2-2zm-.5 5c-.276 0-.5-.224-.5-.5s.224-.5.5-.5.5.224.5.5-.224.5-.5.5zm1.5-2h-3v-.5c0-.828.672-1.5 1.5-1.5s1.5.672 1.5 1.5v.5z"/><path fill="#A0A0A0" d="M134 113h-1c-1.104 0-2 .896-2 2v3c0 .553.447 1 1 1h3c.553 0 1-.447 1-1v-3c0-1.104-.896-2-2-2zm-.5 5c-.276 0-.5-.224-.5-.5s.224-.5.5-.5.5.224.5.5-.224.5-.5.5zm1.5-2h-3v-.5c0-.828.672-1.5 1.5-1.5s1.5.672 1.5 1.5v.5z"/><path fill="#9600FF" d="M168 113h-1c-1.104 0-2 .896-2 2v3c0 .553.447 1 1 1h3c.553 0 1-.447 1-1v-3c0-1.104-.896-2-2-2zm-.5 5c-.276 0-.5-.224-.5-.5s.224-.5.5-.5.5.224.5.5-.224.5-.5.5zm1.5-2h-3v-.5c0-.828.672-1.5 1.5-1.5s1.5.672 1.5 1.5v.5z"/><path fill="#C90" d="M202 113h-1c-1.104 0-2 .896-2 2v3c0 .553.447 1 1 1h3c.553 0 1-.447 1-1v-3c0-1.104-.896-2-2-2zm-.5 5c-.276 0-.5-.224-.5-.5s.224-.5.5-.5.5.224.5.5-.224.5-.5.5zm1.5-2h-3v-.5c0-.828.672-1.5 1.5-1.5s1.5.672 1.5 1.5v.5z"/></g></g><g><defs><path id="m" d="M0 0v204h238V0H0zm42 102h-8v-3.5l2.5-2.5h2l3.5 3.5v2.5zm17 0h-8v-3.5l2.5-2.5h2l3.5 3.5v2.5zm17 0h-8v-3.5l2.5-2.5h2l3.5 3.5v2.5zm17 0h-8v-3.5l2.5-2.5h2l3.5 3.5v2.5zm17 0h-7.277c-.347.596-.984 1-1.723 1h-3c-1.104 0-2-.896-2-2v-4c0-1.104.896-2 2-2h3c1.104 0 2 .896 2 2v.5l1.5-1.5h2l3.5 3.5v2.5zm17 0h-7.277c-.347.596-.984 1-1.723 1h-3c-1.104 0-2-.896-2-2v-4c0-1.104.896-2 2-2h3c1.104 0 2 .896 2 2v.5l1.5-1.5h2l3.5 3.5v2.5zm17 0h-7.277c-.347.596-.984 1-1.723 1h-3c-1.104 0-2-.896-2-2v-4c0-1.104.896-2 2-2h3c1.104 0 2 .896 2 2v.5l1.5-1.5h2l3.5 3.5v2.5zm17 0h-8v-3.5l2.5-2.5h2l3.5 3.5v2.5zm17 0h-7.277c-.347.596-.984 1-1.723 1h-3c-1.104 0-2-.896-2-2v-4c0-1.104.896-2 2-2h3c1.104 0 2 .896 2 2v.5l1.5-1.5h2l3.5 3.5v2.5zm17 0h-8v-3.5l2.5-2.5h2l3.5 3.5v2.5zm17 0h-7.277c-.347.596-.984 1-1.723 1h-3c-1.104 0-2-.896-2-2v-4c0-1.104.896-2 2-2h3c1.104 0 2 .896 2 2v.5l1.5-1.5h2l3.5 3.5v2.5zm17 0h-8v-3.5l2.5-2.5h2l3.5 3.5v2.5z"/></defs><clipPath id="n"><use xlink:href="#m" overflow="visible"/></clipPath><g clip-path="url(#n)"><path fill="#4DA6FF" d="M59.5 88c-3.037 0-5.5 2.463-5.5 5.5s2.463 5.5 5.5 5.5 5.5-2.463 5.5-5.5-2.463-5.5-5.5-5.5zM58 97v-7l4.5 3.5L58 97zM76.5 88c-3.037 0-5.5 2.463-5.5 5.5s2.463 5.5 5.5 5.5 5.5-2.463 5.5-5.5-2.463-5.5-5.5-5.5zM75 97v-7l4.5 3.5L75 97zM93.5 88c-3.037 0-5.5 2.463-5.5 5.5s2.463 5.5 5.5 5.5 5.5-2.463 5.5-5.5-2.463-5.5-5.5-5.5zM92 97v-7l4.5 3.5L92 97zM110.5 88c-3.037 0-5.5 2.463-5.5 5.5s2.463 5.5 5.5 5.5 5.5-2.463 5.5-5.5-2.463-5.5-5.5-5.5zm-1.5 9v-7l4.5 3.5L109 97z"/><path fill="#A0A0A0" d="M127.5 88c-3.037 0-5.5 2.463-5.5 5.5s2.463 5.5 5.5 5.5 5.5-2.463 5.5-5.5-2.463-5.5-5.5-5.5zm-1.5 9v-7l4.5 3.5L126 97z"/><path fill="#9600FF" d="M144.5 88c-3.037 0-5.5 2.463-5.5 5.5s2.463 5.5 5.5 5.5 5.5-2.463 5.5-5.5-2.463-5.5-5.5-5.5zm-1.5 9v-7l4.5 3.5L143 97zM161.5 88c-3.037 0-5.5 2.463-5.5 5.5s2.463 5.5 5.5 5.5 5.5-2.463 5.5-5.5-2.463-5.5-5.5-5.5zm-1.5 9v-7l4.5 3.5L160 97z"/><path fill="#C90" d="M178.5 88c-3.037 0-5.5 2.463-5.5 5.5s2.463 5.5 5.5 5.5 5.5-2.463 5.5-5.5-2.463-5.5-5.5-5.5zm-1.5 9v-7l4.5 3.5L177 97zM195.5 88c-3.038 0-5.5 2.463-5.5 5.5s2.462 5.5 5.5 5.5c3.037 0 5.5-2.463 5.5-5.5s-2.463-5.5-5.5-5.5zm-1.5 9v-7l4.5 3.5L194 97z"/><path fill="#7DA01F" d="M212.5 87c-3.59 0-6.5 2.91-6.5 6.5s2.91 6.5 6.5 6.5 6.5-2.91 6.5-6.5-2.91-6.5-6.5-6.5zm0 12c-3.037 0-5.5-2.463-5.5-5.5s2.463-5.5 5.5-5.5 5.5 2.463 5.5 5.5-2.463 5.5-5.5 5.5zm-1.5-2l4.5-3.5L211 90v7zM229.5 87c-3.59 0-6.5 2.91-6.5 6.5s2.91 6.5 6.5 6.5 6.5-2.91 6.5-6.5-2.91-6.5-6.5-6.5zm0 12c-3.037 0-5.5-2.463-5.5-5.5s2.463-5.5 5.5-5.5 5.5 2.463 5.5 5.5-2.463 5.5-5.5 5.5zm-1.5-2l4.5-3.5L228 90v7z"/></g><g clip-path="url(#n)"><path fill="#4DA6FF" d="M70 93.5c0-2.233 1.127-4.203 2.843-5.373-2.477.536-4.333 2.737-4.333 5.373s1.856 4.837 4.333 5.373C71.127 97.703 70 95.733 70 93.5zM104 93.5c0-2.233 1.127-4.203 2.843-5.373-2.477.536-4.333 2.737-4.333 5.373s1.856 4.837 4.333 5.373c-1.716-1.17-2.843-3.14-2.843-5.373z"/><path fill="#7DA01F" d="M222 93.5c0-2.463 1.192-4.643 3.026-6.01-2.362.973-4.026 3.296-4.026 6.01s1.664 5.037 4.026 6.01C223.192 98.143 222 95.963 222 93.5z"/></g><g><path fill="#4DA6FF" d="M100 96h-1c-1.104 0-2 .896-2 2v3c0 .553.447 1 1 1h3c.553 0 1-.447 1-1v-3c0-1.104-.896-2-2-2zm-.5 5c-.276 0-.5-.224-.5-.5s.224-.5.5-.5.5.224.5.5-.224.5-.5.5zm1.5-2h-3v-.5c0-.828.672-1.5 1.5-1.5s1.5.672 1.5 1.5v.5zM117 96h-1c-1.104 0-2 .896-2 2v3c0 .553.447 1 1 1h3c.553 0 1-.447 1-1v-3c0-1.104-.896-2-2-2zm-.5 5c-.276 0-.5-.224-.5-.5s.224-.5.5-.5.5.224.5.5-.224.5-.5.5zm1.5-2h-3v-.5c0-.828.672-1.5 1.5-1.5s1.5.672 1.5 1.5v.5z"/><path fill="#A0A0A0" d="M134 96h-1c-1.104 0-2 .896-2 2v3c0 .553.447 1 1 1h3c.553 0 1-.447 1-1v-3c0-1.104-.896-2-2-2zm-.5 5c-.276 0-.5-.224-.5-.5s.224-.5.5-.5.5.224.5.5-.224.5-.5.5zm1.5-2h-3v-.5c0-.828.672-1.5 1.5-1.5s1.5.672 1.5 1.5v.5z"/><path fill="#9600FF" d="M168 96h-1c-1.104 0-2 .896-2 2v3c0 .553.447 1 1 1h3c.553 0 1-.447 1-1v-3c0-1.104-.896-2-2-2zm-.5 5c-.276 0-.5-.224-.5-.5s.224-.5.5-.5.5.224.5.5-.224.5-.5.5zm1.5-2h-3v-.5c0-.828.672-1.5 1.5-1.5s1.5.672 1.5 1.5v.5z"/><path fill="#C90" d="M202 96h-1c-1.104 0-2 .896-2 2v3c0 .553.447 1 1 1h3c.553 0 1-.447 1-1v-3c0-1.104-.896-2-2-2zm-.5 5c-.276 0-.5-.224-.5-.5s.224-.5.5-.5.5.224.5.5-.224.5-.5.5zm1.5-2h-3v-.5c0-.828.672-1.5 1.5-1.5s1.5.672 1.5 1.5v.5z"/></g><g><path fill="#4DA6FF" d="M53.5 97.38l-2.12 2.12 2.12 2.12.707-.706-1.414-1.414 1.414-1.414-.707-.707zm2 0l-.707.706 1.414 1.414-1.414 1.414.707.707 2.12-2.12-2.12-2.12zM70.5 97.38l-2.12 2.12 2.12 2.12.707-.706-1.414-1.414 1.414-1.414-.707-.707zm2 0l-.707.706 1.414 1.414-1.414 1.414.707.707 2.12-2.12-2.12-2.12zM87.5 97.38l-2.12 2.12 2.12 2.12.707-.706-1.414-1.414 1.414-1.414-.707-.707zm2 0l-.707.706 1.414 1.414-1.414 1.414.707.707 2.12-2.12-2.12-2.12zM104.5 97.38l-2.12 2.12 2.12 2.12.707-.706-1.414-1.414 1.414-1.414-.707-.707zm2 0l-.707.706 1.414 1.414-1.414 1.414.707.707 2.12-2.12-2.12-2.12z"/><path fill="#A0A0A0" d="M121.5 97.38l-2.12 2.12 2.12 2.12.707-.706-1.414-1.414 1.414-1.414-.707-.707zm2 0l-.707.706 1.414 1.414-1.414 1.414.707.707 2.12-2.12-2.12-2.12z"/><path fill="#9600FF" d="M140.5 97.38l-.707.706 1.414 1.414-1.414 1.414.707.707 2.12-2.12-2.12-2.12zm-2 0l-2.12 2.12 2.12 2.12.707-.706-1.414-1.414 1.414-1.414-.707-.707zM155.5 97.38l-2.12 2.12 2.12 2.12.707-.706-1.414-1.414 1.414-1.414-.707-.707zm2 0l-.707.706 1.414 1.414-1.414 1.414.707.707 2.12-2.12-2.12-2.12z"/><path fill="#C90" d="M172.5 97.38l-2.12 2.12 2.12 2.12.707-.706-1.414-1.414 1.414-1.414-.707-.707zm2 0l-.707.706 1.414 1.414-1.414 1.414.707.707 2.12-2.12-2.12-2.12zM191.5 97.38l-.707.706 1.414 1.414-1.414 1.414.707.707 2.12-2.12-2.12-2.12zm-2 0l-2.12 2.12 2.12 2.12.707-.706-1.414-1.414 1.414-1.414-.707-.707z"/><path fill="#7DA01F" d="M208.5 97.38l-.707.706 1.414 1.414-1.414 1.414.707.707 2.12-2.12-2.12-2.12zm-2 0l-2.12 2.12 2.12 2.12.707-.706-1.414-1.414 1.414-1.414-.707-.707zM223.5 97.38l-2.12 2.12.04.04 2.08 2.08.707-.706-1.414-1.414 1.414-1.414-.707-.707zm4.08 2.08l-2.08-2.08-.707.706 1.414 1.414-1.414 1.414.707.707 2.12-2.12-.04-.04z"/></g></g><g><defs><path id="o" d="M0 0v204h238V0H0zm103 84c0 1.104-.896 2-2 2h-3c-1.104 0-2-.896-2-2v-4c0-1.104.896-2 2-2h3c1.104 0 2 .896 2 2v4zm17 0c0 1.104-.896 2-2 2h-3c-1.104 0-2-.896-2-2v-4c0-1.104.896-2 2-2h3c1.104 0 2 .896 2 2v4zm17 0c0 1.104-.896 2-2 2h-3c-1.104 0-2-.896-2-2v-4c0-1.104.896-2 2-2h3c1.104 0 2 .896 2 2v4zm34 0c0 1.104-.896 2-2 2h-3c-1.104 0-2-.896-2-2v-4c0-1.104.896-2 2-2h3c1.104 0 2 .896 2 2v4zm34 0c0 1.104-.896 2-2 2h-3c-1.104 0-2-.896-2-2v-4c0-1.104.896-2 2-2h3c1.104 0 2 .896 2 2v4z"/></defs><clipPath id="p"><use xlink:href="#o" overflow="visible"/></clipPath><g clip-path="url(#p)"><path fill="#4DA6FF" d="M59.5 71c-3.037 0-5.5 2.463-5.5 5.5s2.463 5.5 5.5 5.5 5.5-2.463 5.5-5.5-2.463-5.5-5.5-5.5zM58 80v-7l4.5 3.5L58 80z"/></g><g clip-path="url(#p)"><path fill="#4DA6FF" d="M76.5 71c-3.037 0-5.5 2.463-5.5 5.5s2.463 5.5 5.5 5.5 5.5-2.463 5.5-5.5-2.463-5.5-5.5-5.5zM75 80v-7l4.5 3.5L75 80z"/></g><g clip-path="url(#p)"><path fill="#4DA6FF" d="M93.5 71c-3.037 0-5.5 2.463-5.5 5.5s2.463 5.5 5.5 5.5 5.5-2.463 5.5-5.5-2.463-5.5-5.5-5.5zM92 80v-7l4.5 3.5L92 80z"/></g><g clip-path="url(#p)"><path fill="#4DA6FF" d="M110.5 71c-3.037 0-5.5 2.463-5.5 5.5s2.463 5.5 5.5 5.5 5.5-2.463 5.5-5.5-2.463-5.5-5.5-5.5zm-1.5 9v-7l4.5 3.5L109 80z"/></g><g clip-path="url(#p)"><path fill="#A0A0A0" d="M127.5 71c-3.037 0-5.5 2.463-5.5 5.5s2.463 5.5 5.5 5.5 5.5-2.463 5.5-5.5-2.463-5.5-5.5-5.5zm-1.5 9v-7l4.5 3.5L126 80z"/></g><g clip-path="url(#p)"><path fill="#9600FF" d="M144.5 71c-3.037 0-5.5 2.463-5.5 5.5s2.463 5.5 5.5 5.5 5.5-2.463 5.5-5.5-2.463-5.5-5.5-5.5zm-1.5 9v-7l4.5 3.5L143 80z"/></g><g clip-path="url(#p)"><path fill="#9600FF" d="M161.5 71c-3.037 0-5.5 2.463-5.5 5.5s2.463 5.5 5.5 5.5 5.5-2.463 5.5-5.5-2.463-5.5-5.5-5.5zm-1.5 9v-7l4.5 3.5L160 80z"/></g><g clip-path="url(#p)"><path fill="#C90" d="M178.5 71c-3.037 0-5.5 2.463-5.5 5.5s2.463 5.5 5.5 5.5 5.5-2.463 5.5-5.5-2.463-5.5-5.5-5.5zm-1.5 9v-7l4.5 3.5L177 80z"/></g><g clip-path="url(#p)"><path fill="#C90" d="M195.5 71c-3.038 0-5.5 2.463-5.5 5.5s2.462 5.5 5.5 5.5c3.037 0 5.5-2.463 5.5-5.5s-2.463-5.5-5.5-5.5zm-1.5 9v-7l4.5 3.5L194 80z"/></g><g clip-path="url(#p)"><path fill="#7DA01F" d="M212.5 70c-3.59 0-6.5 2.91-6.5 6.5s2.91 6.5 6.5 6.5 6.5-2.91 6.5-6.5-2.91-6.5-6.5-6.5zm0 12c-3.037 0-5.5-2.463-5.5-5.5s2.463-5.5 5.5-5.5 5.5 2.463 5.5 5.5-2.463 5.5-5.5 5.5zm-1.5-2l4.5-3.5L211 73v7z"/></g><g clip-path="url(#p)"><path fill="#7DA01F" d="M229.5 70c-3.59 0-6.5 2.91-6.5 6.5s2.91 6.5 6.5 6.5 6.5-2.91 6.5-6.5-2.91-6.5-6.5-6.5zm0 12c-3.037 0-5.5-2.463-5.5-5.5s2.463-5.5 5.5-5.5 5.5 2.463 5.5 5.5-2.463 5.5-5.5 5.5zm-1.5-2l4.5-3.5L228 73v7z"/></g><g><path fill="#4DA6FF" d="M70 76.5c0-2.233 1.127-4.203 2.843-5.373-2.477.536-4.333 2.737-4.333 5.373s1.856 4.837 4.333 5.373C71.127 80.703 70 78.733 70 76.5zM104 76.5c0-2.233 1.127-4.203 2.843-5.373-2.477.536-4.333 2.737-4.333 5.373s1.856 4.837 4.333 5.373c-1.716-1.17-2.843-3.14-2.843-5.373z"/><path fill="#7DA01F" d="M222 76.5c0-2.463 1.192-4.643 3.026-6.01-2.362.973-4.026 3.296-4.026 6.01s1.664 5.037 4.026 6.01C223.192 81.143 222 78.963 222 76.5z"/></g><g><path fill="#4DA6FF" d="M100 79h-1c-1.104 0-2 .896-2 2v3c0 .553.447 1 1 1h3c.553 0 1-.447 1-1v-3c0-1.104-.896-2-2-2zm-.5 5c-.276 0-.5-.224-.5-.5s.224-.5.5-.5.5.224.5.5-.224.5-.5.5zm1.5-2h-3v-.5c0-.828.672-1.5 1.5-1.5s1.5.672 1.5 1.5v.5zM117 79h-1c-1.104 0-2 .896-2 2v3c0 .553.447 1 1 1h3c.553 0 1-.447 1-1v-3c0-1.104-.896-2-2-2zm-.5 5c-.276 0-.5-.224-.5-.5s.224-.5.5-.5.5.224.5.5-.224.5-.5.5zm1.5-2h-3v-.5c0-.828.672-1.5 1.5-1.5s1.5.672 1.5 1.5v.5z"/><path fill="#A0A0A0" d="M134 79h-1c-1.104 0-2 .896-2 2v3c0 .553.447 1 1 1h3c.553 0 1-.447 1-1v-3c0-1.104-.896-2-2-2zm-.5 5c-.276 0-.5-.224-.5-.5s.224-.5.5-.5.5.224.5.5-.224.5-.5.5zm1.5-2h-3v-.5c0-.828.672-1.5 1.5-1.5s1.5.672 1.5 1.5v.5z"/><path fill="#9600FF" d="M168 79h-1c-1.104 0-2 .896-2 2v3c0 .553.447 1 1 1h3c.553 0 1-.447 1-1v-3c0-1.104-.896-2-2-2zm-.5 5c-.276 0-.5-.224-.5-.5s.224-.5.5-.5.5.224.5.5-.224.5-.5.5zm1.5-2h-3v-.5c0-.828.672-1.5 1.5-1.5s1.5.672 1.5 1.5v.5z"/><path fill="#C90" d="M202 79h-1c-1.104 0-2 .896-2 2v3c0 .553.447 1 1 1h3c.553 0 1-.447 1-1v-3c0-1.104-.896-2-2-2zm-.5 5c-.276 0-.5-.224-.5-.5s.224-.5.5-.5.5.224.5.5-.224.5-.5.5zm1.5-2h-3v-.5c0-.828.672-1.5 1.5-1.5s1.5.672 1.5 1.5v.5z"/></g></g><g><defs><path id="q" d="M0 0v204h238V0H0zm103 67c0 1.104-.896 2-2 2h-3c-1.104 0-2-.896-2-2v-4c0-1.104.896-2 2-2h3c1.104 0 2 .896 2 2v4zm17 0c0 1.104-.896 2-2 2h-3c-1.104 0-2-.896-2-2v-4c0-1.104.896-2 2-2h3c1.104 0 2 .896 2 2v4zm17 0c0 1.104-.896 2-2 2h-3c-1.104 0-2-.896-2-2v-4c0-1.104.896-2 2-2h3c1.104 0 2 .896 2 2v4zm34 0c0 1.104-.896 2-2 2h-3c-1.104 0-2-.896-2-2v-4c0-1.104.896-2 2-2h3c1.104 0 2 .896 2 2v4zm34 0c0 1.104-.896 2-2 2h-3c-1.104 0-2-.896-2-2v-4c0-1.104.896-2 2-2h3c1.104 0 2 .896 2 2v4z"/></defs><clipPath id="r"><use xlink:href="#q" overflow="visible"/></clipPath><g clip-path="url(#r)"><path fill="#4DA6FF" d="M59.5 54c-3.037 0-5.5 2.463-5.5 5.5s2.463 5.5 5.5 5.5 5.5-2.463 5.5-5.5-2.463-5.5-5.5-5.5zM56 58h3v-2.5l3.5 3.5H56v-1zm7 3h-3v2.5L56.5 60H63v1z"/></g><g clip-path="url(#r)"><path fill="#4DA6FF" d="M76.5 54c-3.037 0-5.5 2.463-5.5 5.5s2.463 5.5 5.5 5.5 5.5-2.463 5.5-5.5-2.463-5.5-5.5-5.5zM73 58h3v-2.5l3.5 3.5H73v-1zm7 3h-3v2.5L73.5 60H80v1z"/></g><g clip-path="url(#r)"><path fill="#4DA6FF" d="M93.5 54c-3.037 0-5.5 2.463-5.5 5.5s2.463 5.5 5.5 5.5 5.5-2.463 5.5-5.5-2.463-5.5-5.5-5.5zM90 58h3v-2.5l3.5 3.5H90v-1zm7 3h-3v2.5L90.5 60H97v1z"/></g><g clip-path="url(#r)"><path fill="#4DA6FF" d="M110.5 54c-3.037 0-5.5 2.463-5.5 5.5s2.463 5.5 5.5 5.5 5.5-2.463 5.5-5.5-2.463-5.5-5.5-5.5zm-3.5 4h3v-2.5l3.5 3.5H107v-1zm7 3h-3v2.5l-3.5-3.5h6.5v1z"/></g><g clip-path="url(#r)"><path fill="#A0A0A0" d="M127.5 54c-3.037 0-5.5 2.463-5.5 5.5s2.463 5.5 5.5 5.5 5.5-2.463 5.5-5.5-2.463-5.5-5.5-5.5zm-3.5 4h3v-2.5l3.5 3.5H124v-1zm7 3h-3v2.5l-3.5-3.5h6.5v1z"/></g><g clip-path="url(#r)"><path fill="#9600FF" d="M144.5 54c-3.037 0-5.5 2.463-5.5 5.5s2.463 5.5 5.5 5.5 5.5-2.463 5.5-5.5-2.463-5.5-5.5-5.5zm-3.5 4h3v-2.5l3.5 3.5H141v-1zm7 3h-3v2.5l-3.5-3.5h6.5v1z"/></g><g clip-path="url(#r)"><path fill="#9600FF" d="M161.5 54c-3.037 0-5.5 2.463-5.5 5.5s2.463 5.5 5.5 5.5 5.5-2.463 5.5-5.5-2.463-5.5-5.5-5.5zm-3.5 4h3v-2.5l3.5 3.5H158v-1zm7 3h-3v2.5l-3.5-3.5h6.5v1z"/></g><g clip-path="url(#r)"><path fill="#C90" d="M178.5 54c-3.037 0-5.5 2.463-5.5 5.5s2.463 5.5 5.5 5.5 5.5-2.463 5.5-5.5-2.463-5.5-5.5-5.5zm-3.5 4h3v-2.5l3.5 3.5H175v-1zm7 3h-3v2.5l-3.5-3.5h6.5v1z"/></g><g clip-path="url(#r)"><path fill="#C90" d="M195.5 54c-3.038 0-5.5 2.463-5.5 5.5s2.462 5.5 5.5 5.5c3.037 0 5.5-2.463 5.5-5.5s-2.463-5.5-5.5-5.5zm-3.5 4h3v-2.5l3.5 3.5H192v-1zm7 3h-3v2.5l-3.5-3.5h6.5v1z"/></g><g clip-path="url(#r)"><path fill="#7DA01F" d="M212 55.5V58h-3v1h6.5l-3.5-3.5zm.5-2.5c-3.59 0-6.5 2.91-6.5 6.5s2.91 6.5 6.5 6.5 6.5-2.91 6.5-6.5-2.91-6.5-6.5-6.5zm0 12c-3.037 0-5.5-2.463-5.5-5.5s2.463-5.5 5.5-5.5 5.5 2.463 5.5 5.5-2.463 5.5-5.5 5.5zm.5-1.5V61h3v-1h-6.5l3.5 3.5z"/></g><g clip-path="url(#r)"><path fill="#7DA01F" d="M229 55.5V58h-3v1h6.5l-3.5-3.5zm.5-2.5c-3.59 0-6.5 2.91-6.5 6.5s2.91 6.5 6.5 6.5 6.5-2.91 6.5-6.5-2.91-6.5-6.5-6.5zm0 12c-3.037 0-5.5-2.463-5.5-5.5s2.463-5.5 5.5-5.5 5.5 2.463 5.5 5.5-2.463 5.5-5.5 5.5zm.5-1.5V61h3v-1h-6.5l3.5 3.5z"/></g><g><path fill="#4DA6FF" d="M70 59.5c0-2.233 1.127-4.203 2.843-5.373-2.477.536-4.333 2.737-4.333 5.373s1.856 4.837 4.333 5.373C71.127 63.703 70 61.733 70 59.5zM104 59.5c0-2.233 1.127-4.203 2.843-5.373-2.477.536-4.333 2.737-4.333 5.373s1.856 4.837 4.333 5.373c-1.716-1.17-2.843-3.14-2.843-5.373z"/><path fill="#7DA01F" d="M222 59.5c0-2.463 1.192-4.643 3.026-6.01-2.362.973-4.026 3.296-4.026 6.01s1.664 5.037 4.026 6.01C223.192 64.143 222 61.963 222 59.5z"/></g><g><path fill="#4DA6FF" d="M117 62h-1c-1.104 0-2 .896-2 2v3c0 .553.447 1 1 1h3c.553 0 1-.447 1-1v-3c0-1.104-.896-2-2-2zm-.5 5c-.276 0-.5-.224-.5-.5s.224-.5.5-.5.5.224.5.5-.224.5-.5.5zm1.5-2h-3v-.5c0-.828.672-1.5 1.5-1.5s1.5.672 1.5 1.5v.5zM100 62h-1c-1.104 0-2 .896-2 2v3c0 .553.447 1 1 1h3c.553 0 1-.447 1-1v-3c0-1.104-.896-2-2-2zm-.5 5c-.276 0-.5-.224-.5-.5s.224-.5.5-.5.5.224.5.5-.224.5-.5.5zm1.5-2h-3v-.5c0-.828.672-1.5 1.5-1.5s1.5.672 1.5 1.5v.5z"/><path fill="#A0A0A0" d="M134 62h-1c-1.104 0-2 .896-2 2v3c0 .553.447 1 1 1h3c.553 0 1-.447 1-1v-3c0-1.104-.896-2-2-2zm-.5 5c-.276 0-.5-.224-.5-.5s.224-.5.5-.5.5.224.5.5-.224.5-.5.5zm1.5-2h-3v-.5c0-.828.672-1.5 1.5-1.5s1.5.672 1.5 1.5v.5z"/><path fill="#9600FF" d="M168 62h-1c-1.104 0-2 .896-2 2v3c0 .553.447 1 1 1h3c.553 0 1-.447 1-1v-3c0-1.104-.896-2-2-2zm-.5 5c-.276 0-.5-.224-.5-.5s.224-.5.5-.5.5.224.5.5-.224.5-.5.5zm1.5-2h-3v-.5c0-.828.672-1.5 1.5-1.5s1.5.672 1.5 1.5v.5z"/><path fill="#C90" d="M202 62h-1c-1.104 0-2 .896-2 2v3c0 .553.447 1 1 1h3c.553 0 1-.447 1-1v-3c0-1.104-.896-2-2-2zm-.5 5c-.276 0-.5-.224-.5-.5s.224-.5.5-.5.5.224.5.5-.224.5-.5.5zm1.5-2h-3v-.5c0-.828.672-1.5 1.5-1.5s1.5.672 1.5 1.5v.5z"/></g></g><g><defs><path id="s" d="M0 0v204h238V0H0zm103 50c0 1.104-.896 2-2 2h-3c-1.104 0-2-.896-2-2v-4c0-1.104.896-2 2-2h3c1.104 0 2 .896 2 2v4zm17 0c0 1.104-.896 2-2 2h-3c-1.104 0-2-.896-2-2v-4c0-1.104.896-2 2-2h3c1.104 0 2 .896 2 2v4zm17 0c0 1.104-.896 2-2 2h-3c-1.104 0-2-.896-2-2v-4c0-1.104.896-2 2-2h3c1.104 0 2 .896 2 2v4zm34 0c0 1.104-.896 2-2 2h-3c-1.104 0-2-.896-2-2v-4c0-1.104.896-2 2-2h3c1.104 0 2 .896 2 2v4zm34 0c0 1.104-.896 2-2 2h-3c-1.104 0-2-.896-2-2v-4c0-1.104.896-2 2-2h3c1.104 0 2 .896 2 2v4z"/></defs><clipPath id="t"><use xlink:href="#s" overflow="visible"/></clipPath><g clip-path="url(#t)"><path fill="#4DA6FF" d="M59.5 38c-2.485 0-4.5 2.015-4.5 4.5h9c0-2.485-2.015-4.5-4.5-4.5zM76.5 38c-2.485 0-4.5 2.015-4.5 4.5h9c0-2.485-2.015-4.5-4.5-4.5zM93.5 38c-2.485 0-4.5 2.015-4.5 4.5h9c0-2.485-2.015-4.5-4.5-4.5zM110.5 38c-2.485 0-4.5 2.015-4.5 4.5h9c0-2.485-2.015-4.5-4.5-4.5z" opacity=".349"/><path fill="#A0A0A0" d="M127.5 38c-2.485 0-4.5 2.015-4.5 4.5h9c0-2.485-2.015-4.5-4.5-4.5z" opacity=".349"/><path fill="#9600FF" d="M144.5 38c-2.485 0-4.5 2.015-4.5 4.5h9c0-2.485-2.015-4.5-4.5-4.5zM161.5 38c-2.485 0-4.5 2.015-4.5 4.5h9c0-2.485-2.015-4.5-4.5-4.5z" opacity=".349"/><path fill="#C90" d="M178.5 38c-2.485 0-4.5 2.015-4.5 4.5h9c0-2.485-2.015-4.5-4.5-4.5zM195.5 38c-2.485 0-4.5 2.015-4.5 4.5h9c0-2.485-2.015-4.5-4.5-4.5z" opacity=".349"/><path fill="#7DA01F" d="M212 38.5V41h-3v1h6.5M229 38.5V41h-3v1h6.5" opacity=".349"/></g><g clip-path="url(#t)"><path fill="#4DA6FF" d="M59.5 37c-3.037 0-5.5 2.463-5.5 5.5s2.463 5.5 5.5 5.5 5.5-2.463 5.5-5.5-2.463-5.5-5.5-5.5zM56 41h3v-2.5l3.5 3.5H56v-1zm7 3h-3v2.5L56.5 43H63v1z"/></g><g clip-path="url(#t)"><path fill="#4DA6FF" d="M76.5 37c-3.037 0-5.5 2.463-5.5 5.5s2.463 5.5 5.5 5.5 5.5-2.463 5.5-5.5-2.463-5.5-5.5-5.5zM73 41h3v-2.5l3.5 3.5H73v-1zm7 3h-3v2.5L73.5 43H80v1z"/></g><g clip-path="url(#t)"><path fill="#4DA6FF" d="M93.5 37c-3.037 0-5.5 2.463-5.5 5.5s2.463 5.5 5.5 5.5 5.5-2.463 5.5-5.5-2.463-5.5-5.5-5.5zM90 41h3v-2.5l3.5 3.5H90v-1zm7 3h-3v2.5L90.5 43H97v1z"/></g><g clip-path="url(#t)"><path fill="#4DA6FF" d="M110.5 37c-3.037 0-5.5 2.463-5.5 5.5s2.463 5.5 5.5 5.5 5.5-2.463 5.5-5.5-2.463-5.5-5.5-5.5zm-3.5 4h3v-2.5l3.5 3.5H107v-1zm7 3h-3v2.5l-3.5-3.5h6.5v1z"/></g><g clip-path="url(#t)"><path fill="#A0A0A0" d="M127.5 37c-3.037 0-5.5 2.463-5.5 5.5s2.463 5.5 5.5 5.5 5.5-2.463 5.5-5.5-2.463-5.5-5.5-5.5zm-3.5 4h3v-2.5l3.5 3.5H124v-1zm7 3h-3v2.5l-3.5-3.5h6.5v1z"/></g><g clip-path="url(#t)"><path fill="#9600FF" d="M144.5 37c-3.037 0-5.5 2.463-5.5 5.5s2.463 5.5 5.5 5.5 5.5-2.463 5.5-5.5-2.463-5.5-5.5-5.5zm-3.5 4h3v-2.5l3.5 3.5H141v-1zm7 3h-3v2.5l-3.5-3.5h6.5v1z"/></g><g clip-path="url(#t)"><path fill="#9600FF" d="M161.5 37c-3.037 0-5.5 2.463-5.5 5.5s2.463 5.5 5.5 5.5 5.5-2.463 5.5-5.5-2.463-5.5-5.5-5.5zm-3.5 4h3v-2.5l3.5 3.5H158v-1zm7 3h-3v2.5l-3.5-3.5h6.5v1z"/></g><g clip-path="url(#t)"><path fill="#C90" d="M178.5 37c-3.037 0-5.5 2.463-5.5 5.5s2.463 5.5 5.5 5.5 5.5-2.463 5.5-5.5-2.463-5.5-5.5-5.5zm-3.5 4h3v-2.5l3.5 3.5H175v-1zm7 3h-3v2.5l-3.5-3.5h6.5v1z"/></g><g clip-path="url(#t)"><path fill="#C90" d="M195.5 37c-3.038 0-5.5 2.463-5.5 5.5s2.462 5.5 5.5 5.5c3.037 0 5.5-2.463 5.5-5.5s-2.463-5.5-5.5-5.5zm-3.5 4h3v-2.5l3.5 3.5H192v-1zm7 3h-3v2.5l-3.5-3.5h6.5v1z"/></g><g clip-path="url(#t)"><path fill="#7DA01F" d="M212.5 36c-3.59 0-6.5 2.91-6.5 6.5s2.91 6.5 6.5 6.5 6.5-2.91 6.5-6.5-2.91-6.5-6.5-6.5zm0 12c-3.037 0-5.5-2.463-5.5-5.5s2.463-5.5 5.5-5.5 5.5 2.463 5.5 5.5-2.463 5.5-5.5 5.5zm.5-1.5V44h3v-1h-6.5l3.5 3.5z"/></g><g clip-path="url(#t)"><path fill="#7DA01F" d="M229.5 36c-3.59 0-6.5 2.91-6.5 6.5s2.91 6.5 6.5 6.5 6.5-2.91 6.5-6.5-2.91-6.5-6.5-6.5zm0 12c-3.037 0-5.5-2.463-5.5-5.5s2.463-5.5 5.5-5.5 5.5 2.463 5.5 5.5-2.463 5.5-5.5 5.5zm.5-1.5V44h3v-1h-6.5l3.5 3.5z"/></g><g><path fill="#4DA6FF" d="M70 42.5c0-2.233 1.127-4.203 2.843-5.373-2.477.536-4.333 2.737-4.333 5.373s1.856 4.837 4.333 5.373C71.127 46.703 70 44.733 70 42.5zM104 42.5c0-2.233 1.127-4.203 2.843-5.373-2.477.536-4.333 2.737-4.333 5.373s1.856 4.837 4.333 5.373c-1.716-1.17-2.843-3.14-2.843-5.373z"/><path fill="#7DA01F" d="M222 42.5c0-2.463 1.192-4.643 3.026-6.01-2.362.973-4.026 3.296-4.026 6.01s1.664 5.037 4.026 6.01C223.192 47.143 222 44.963 222 42.5z"/></g><g><path fill="#4DA6FF" d="M117 45h-1c-1.104 0-2 .896-2 2v3c0 .553.447 1 1 1h3c.553 0 1-.447 1-1v-3c0-1.104-.896-2-2-2zm-.5 5c-.276 0-.5-.224-.5-.5s.224-.5.5-.5.5.224.5.5-.224.5-.5.5zm1.5-2h-3v-.5c0-.828.672-1.5 1.5-1.5s1.5.672 1.5 1.5v.5zM100 45h-1c-1.104 0-2 .896-2 2v3c0 .553.447 1 1 1h3c.553 0 1-.447 1-1v-3c0-1.104-.896-2-2-2zm-.5 5c-.276 0-.5-.224-.5-.5s.224-.5.5-.5.5.224.5.5-.224.5-.5.5zm1.5-2h-3v-.5c0-.828.672-1.5 1.5-1.5s1.5.672 1.5 1.5v.5z"/><path fill="#A0A0A0" d="M134 45h-1c-1.104 0-2 .896-2 2v3c0 .553.447 1 1 1h3c.553 0 1-.447 1-1v-3c0-1.104-.896-2-2-2zm-.5 5c-.276 0-.5-.224-.5-.5s.224-.5.5-.5.5.224.5.5-.224.5-.5.5zm1.5-2h-3v-.5c0-.828.672-1.5 1.5-1.5s1.5.672 1.5 1.5v.5z"/><path fill="#9600FF" d="M168 45h-1c-1.104 0-2 .896-2 2v3c0 .553.447 1 1 1h3c.553 0 1-.447 1-1v-3c0-1.104-.896-2-2-2zm-.5 5c-.276 0-.5-.224-.5-.5s.224-.5.5-.5.5.224.5.5-.224.5-.5.5zm1.5-2h-3v-.5c0-.828.672-1.5 1.5-1.5s1.5.672 1.5 1.5v.5z"/><path fill="#C90" d="M202 45h-1c-1.104 0-2 .896-2 2v3c0 .553.447 1 1 1h3c.553 0 1-.447 1-1v-3c0-1.104-.896-2-2-2zm-.5 5c-.276 0-.5-.224-.5-.5s.224-.5.5-.5.5.224.5.5-.224.5-.5.5zm1.5-2h-3v-.5c0-.828.672-1.5 1.5-1.5s1.5.672 1.5 1.5v.5z"/></g></g><g><defs><path id="u" d="M0 0v204h238V0H0zm103 33c0 1.104-.896 2-2 2h-3c-1.104 0-2-.896-2-2v-4c0-1.104.896-2 2-2h3c1.104 0 2 .896 2 2v4zm17 0c0 1.104-.896 2-2 2h-3c-1.104 0-2-.896-2-2v-4c0-1.104.896-2 2-2h3c1.104 0 2 .896 2 2v4zm17 0c0 1.104-.896 2-2 2h-3c-1.104 0-2-.896-2-2v-4c0-1.104.896-2 2-2h3c1.104 0 2 .896 2 2v4zm34 0c0 1.104-.896 2-2 2h-3c-1.104 0-2-.896-2-2v-4c0-1.104.896-2 2-2h3c1.104 0 2 .896 2 2v4zm34 0c0 1.104-.896 2-2 2h-3c-1.104 0-2-.896-2-2v-4c0-1.104.896-2 2-2h3c1.104 0 2 .896 2 2v4z"/></defs><clipPath id="v"><use xlink:href="#u" overflow="visible"/></clipPath><g clip-path="url(#v)"><path fill="#4DA6FF" d="M55 25.5c0 2.485 2.015 4.5 4.5 4.5s4.5-2.015 4.5-4.5h-9zM72 25.5c0 2.485 2.015 4.5 4.5 4.5s4.5-2.015 4.5-4.5h-9zM89 25.5c0 2.485 2.015 4.5 4.5 4.5s4.5-2.015 4.5-4.5h-9zM106 25.5c0 2.485 2.015 4.5 4.5 4.5s4.5-2.015 4.5-4.5h-9z" opacity=".349"/><path fill="#A0A0A0" d="M123 25.5c0 2.485 2.015 4.5 4.5 4.5s4.5-2.015 4.5-4.5h-9z" opacity=".349"/><path fill="#9600FF" d="M140 25.5c0 2.485 2.015 4.5 4.5 4.5s4.5-2.015 4.5-4.5h-9zM157 25.5c0 2.485 2.015 4.5 4.5 4.5s4.5-2.015 4.5-4.5h-9z" opacity=".349"/><path fill="#C90" d="M174 25.5c0 2.485 2.015 4.5 4.5 4.5s4.5-2.015 4.5-4.5h-9zM191 25.5c0 2.485 2.015 4.5 4.5 4.5s4.5-2.015 4.5-4.5h-9z" opacity=".349"/><path fill="#7DA01F" d="M209.5 26l3.5 3.5V27h3v-1M226.5 26l3.5 3.5V27h3v-1" opacity=".349"/></g><g clip-path="url(#v)"><path fill="#4DA6FF" d="M59.5 20c-3.037 0-5.5 2.463-5.5 5.5s2.463 5.5 5.5 5.5 5.5-2.463 5.5-5.5-2.463-5.5-5.5-5.5zM56 24h3v-2.5l3.5 3.5H56v-1zm7 3h-3v2.5L56.5 26H63v1z"/></g><g clip-path="url(#v)"><path fill="#4DA6FF" d="M76.5 20c-3.037 0-5.5 2.463-5.5 5.5s2.463 5.5 5.5 5.5 5.5-2.463 5.5-5.5-2.463-5.5-5.5-5.5zM73 24h3v-2.5l3.5 3.5H73v-1zm7 3h-3v2.5L73.5 26H80v1z"/></g><g clip-path="url(#v)"><path fill="#4DA6FF" d="M93.5 20c-3.037 0-5.5 2.463-5.5 5.5s2.463 5.5 5.5 5.5 5.5-2.463 5.5-5.5-2.463-5.5-5.5-5.5zM90 24h3v-2.5l3.5 3.5H90v-1zm7 3h-3v2.5L90.5 26H97v1z"/></g><g clip-path="url(#v)"><path fill="#4DA6FF" d="M110.5 20c-3.037 0-5.5 2.463-5.5 5.5s2.463 5.5 5.5 5.5 5.5-2.463 5.5-5.5-2.463-5.5-5.5-5.5zm-3.5 4h3v-2.5l3.5 3.5H107v-1zm7 3h-3v2.5l-3.5-3.5h6.5v1z"/></g><g clip-path="url(#v)"><path fill="#A0A0A0" d="M127.5 20c-3.037 0-5.5 2.463-5.5 5.5s2.463 5.5 5.5 5.5 5.5-2.463 5.5-5.5-2.463-5.5-5.5-5.5zm-3.5 4h3v-2.5l3.5 3.5H124v-1zm7 3h-3v2.5l-3.5-3.5h6.5v1z"/></g><g clip-path="url(#v)"><path fill="#9600FF" d="M144.5 20c-3.037 0-5.5 2.463-5.5 5.5s2.463 5.5 5.5 5.5 5.5-2.463 5.5-5.5-2.463-5.5-5.5-5.5zm-3.5 4h3v-2.5l3.5 3.5H141v-1zm7 3h-3v2.5l-3.5-3.5h6.5v1z"/></g><g clip-path="url(#v)"><path fill="#9600FF" d="M161.5 20c-3.037 0-5.5 2.463-5.5 5.5s2.463 5.5 5.5 5.5 5.5-2.463 5.5-5.5-2.463-5.5-5.5-5.5zm-3.5 4h3v-2.5l3.5 3.5H158v-1zm7 3h-3v2.5l-3.5-3.5h6.5v1z"/></g><g clip-path="url(#v)"><path fill="#C90" d="M178.5 20c-3.037 0-5.5 2.463-5.5 5.5s2.463 5.5 5.5 5.5 5.5-2.463 5.5-5.5-2.463-5.5-5.5-5.5zm-3.5 4h3v-2.5l3.5 3.5H175v-1zm7 3h-3v2.5l-3.5-3.5h6.5v1z"/></g><g clip-path="url(#v)"><path fill="#C90" d="M195.5 20c-3.038 0-5.5 2.463-5.5 5.5s2.462 5.5 5.5 5.5c3.037 0 5.5-2.463 5.5-5.5s-2.463-5.5-5.5-5.5zm-3.5 4h3v-2.5l3.5 3.5H192v-1zm7 3h-3v2.5l-3.5-3.5h6.5v1z"/></g><g clip-path="url(#v)"><path fill="#7DA01F" d="M212.5 19c-3.59 0-6.5 2.91-6.5 6.5s2.91 6.5 6.5 6.5 6.5-2.91 6.5-6.5-2.91-6.5-6.5-6.5zm0 12c-3.037 0-5.5-2.463-5.5-5.5s2.463-5.5 5.5-5.5 5.5 2.463 5.5 5.5-2.463 5.5-5.5 5.5zm-.5-7h-3v1h6.5l-3.5-3.5V24z"/></g><g clip-path="url(#v)"><path fill="#7DA01F" d="M229.5 19c-3.59 0-6.5 2.91-6.5 6.5s2.91 6.5 6.5 6.5 6.5-2.91 6.5-6.5-2.91-6.5-6.5-6.5zm0 12c-3.037 0-5.5-2.463-5.5-5.5s2.463-5.5 5.5-5.5 5.5 2.463 5.5 5.5-2.463 5.5-5.5 5.5zm-.5-7h-3v1h6.5l-3.5-3.5V24z"/></g><g><path fill="#4DA6FF" d="M70 25.5c0-2.233 1.127-4.203 2.843-5.373-2.477.536-4.333 2.737-4.333 5.373s1.856 4.837 4.333 5.373C71.127 29.703 70 27.733 70 25.5zM104 25.5c0-2.233 1.127-4.203 2.843-5.373-2.477.536-4.333 2.737-4.333 5.373s1.856 4.837 4.333 5.373c-1.716-1.17-2.843-3.14-2.843-5.373z"/><path fill="#7DA01F" d="M222 25.5c0-2.463 1.192-4.643 3.026-6.01-2.362.973-4.026 3.296-4.026 6.01s1.664 5.037 4.026 6.01C223.192 30.143 222 27.963 222 25.5z"/></g><g><path fill="#4DA6FF" d="M117 28h-1c-1.104 0-2 .896-2 2v3c0 .553.447 1 1 1h3c.553 0 1-.447 1-1v-3c0-1.104-.896-2-2-2zm-.5 5c-.276 0-.5-.224-.5-.5s.224-.5.5-.5.5.224.5.5-.224.5-.5.5zm1.5-2h-3v-.5c0-.828.672-1.5 1.5-1.5s1.5.672 1.5 1.5v.5zM100 28h-1c-1.104 0-2 .896-2 2v3c0 .553.447 1 1 1h3c.553 0 1-.447 1-1v-3c0-1.104-.896-2-2-2zm-.5 5c-.276 0-.5-.224-.5-.5s.224-.5.5-.5.5.224.5.5-.224.5-.5.5zm1.5-2h-3v-.5c0-.828.672-1.5 1.5-1.5s1.5.672 1.5 1.5v.5z"/><path fill="#A0A0A0" d="M134 28h-1c-1.104 0-2 .896-2 2v3c0 .553.447 1 1 1h3c.553 0 1-.447 1-1v-3c0-1.104-.896-2-2-2zm-.5 5c-.276 0-.5-.224-.5-.5s.224-.5.5-.5.5.224.5.5-.224.5-.5.5zm1.5-2h-3v-.5c0-.828.672-1.5 1.5-1.5s1.5.672 1.5 1.5v.5z"/><path fill="#9600FF" d="M168 28h-1c-1.104 0-2 .896-2 2v3c0 .553.447 1 1 1h3c.553 0 1-.447 1-1v-3c0-1.104-.896-2-2-2zm-.5 5c-.276 0-.5-.224-.5-.5s.224-.5.5-.5.5.224.5.5-.224.5-.5.5zm1.5-2h-3v-.5c0-.828.672-1.5 1.5-1.5s1.5.672 1.5 1.5v.5z"/><path fill="#C90" d="M202 28h-1c-1.104 0-2 .896-2 2v3c0 .553.447 1 1 1h3c.553 0 1-.447 1-1v-3c0-1.104-.896-2-2-2zm-.5 5c-.276 0-.5-.224-.5-.5s.224-.5.5-.5.5.224.5.5-.224.5-.5.5zm1.5-2h-3v-.5c0-.828.672-1.5 1.5-1.5s1.5.672 1.5 1.5v.5z"/></g></g><g><defs><path id="w" d="M0 0v204h238V0H0zm103 16c0 1.104-.896 2-2 2h-3c-1.104 0-2-.896-2-2v-4c0-1.104.896-2 2-2h3c1.104 0 2 .896 2 2v4zm17 0c0 1.104-.896 2-2 2h-3c-1.104 0-2-.896-2-2v-4c0-1.104.896-2 2-2h3c1.104 0 2 .896 2 2v4zm17 0c0 1.104-.896 2-2 2h-3c-1.104 0-2-.896-2-2v-4c0-1.104.896-2 2-2h3c1.104 0 2 .896 2 2v4zm34 0c0 1.104-.896 2-2 2h-3c-1.104 0-2-.896-2-2v-4c0-1.104.896-2 2-2h3c1.104 0 2 .896 2 2v4zm34 0c0 1.104-.896 2-2 2h-3c-1.104 0-2-.896-2-2v-4c0-1.104.896-2 2-2h3c1.104 0 2 .896 2 2v4z"/></defs><clipPath id="x"><use xlink:href="#w" overflow="visible"/></clipPath><g clip-path="url(#x)"><circle fill="#4DA6FF" cx="59.5" cy="8.5" r="5.5"/></g><g clip-path="url(#x)"><circle fill="#4DA6FF" cx="76.5" cy="8.5" r="5.5"/></g><g clip-path="url(#x)"><circle fill="#4DA6FF" cx="93.5" cy="8.5" r="5.5"/></g><g clip-path="url(#x)"><circle fill="#4DA6FF" cx="110.5" cy="8.5" r="5.5"/></g><g clip-path="url(#x)"><circle fill="#A0A0A0" cx="127.5" cy="8.5" r="5.5"/></g><g clip-path="url(#x)"><circle fill="#9600FF" cx="144.5" cy="8.5" r="5.5"/></g><g clip-path="url(#x)"><circle fill="#9600FF" cx="161.5" cy="8.5" r="5.5"/></g><g clip-path="url(#x)"><circle fill="#C90" cx="178.5" cy="8.5" r="5.5"/></g><g clip-path="url(#x)"><circle fill="#C90" cx="195.5" cy="8.5" r="5.5"/></g><g clip-path="url(#x)"><path fill="#7DA01F" d="M212.5 2c-3.59 0-6.5 2.91-6.5 6.5s2.91 6.5 6.5 6.5 6.5-2.91 6.5-6.5-2.91-6.5-6.5-6.5zm0 12c-3.037 0-5.5-2.463-5.5-5.5s2.463-5.5 5.5-5.5 5.5 2.463 5.5 5.5-2.463 5.5-5.5 5.5z"/></g><g clip-path="url(#x)"><path fill="#7DA01F" d="M229.5 2c-3.59 0-6.5 2.91-6.5 6.5s2.91 6.5 6.5 6.5 6.5-2.91 6.5-6.5-2.91-6.5-6.5-6.5zm0 12c-3.037 0-5.5-2.463-5.5-5.5s2.463-5.5 5.5-5.5 5.5 2.463 5.5 5.5-2.463 5.5-5.5 5.5z"/></g><g><path fill="#4DA6FF" d="M70 8.5c0-2.233 1.127-4.203 2.843-5.373-2.477.536-4.333 2.737-4.333 5.373s1.856 4.837 4.333 5.373C71.127 12.703 70 10.733 70 8.5zM104 8.5c0-2.233 1.127-4.203 2.843-5.373-2.477.536-4.333 2.737-4.333 5.373s1.856 4.837 4.333 5.373C105.127 12.703 104 10.733 104 8.5z"/><path fill="#7DA01F" d="M222 8.5c0-2.463 1.192-4.643 3.026-6.01C222.664 3.463 221 5.786 221 8.5s1.664 5.037 4.026 6.01C223.192 13.143 222 10.963 222 8.5z"/></g><g><path fill="#4DA6FF" d="M117 11h-1c-1.104 0-2 .896-2 2v3c0 .553.447 1 1 1h3c.553 0 1-.447 1-1v-3c0-1.104-.896-2-2-2zm-.5 5c-.276 0-.5-.224-.5-.5s.224-.5.5-.5.5.224.5.5-.224.5-.5.5zm1.5-2h-3v-.5c0-.828.672-1.5 1.5-1.5s1.5.672 1.5 1.5v.5zM100 11h-1c-1.104 0-2 .896-2 2v3c0 .553.447 1 1 1h3c.553 0 1-.447 1-1v-3c0-1.104-.896-2-2-2zm-.5 5c-.276 0-.5-.224-.5-.5s.224-.5.5-.5.5.224.5.5-.224.5-.5.5zm1.5-2h-3v-.5c0-.828.672-1.5 1.5-1.5s1.5.672 1.5 1.5v.5z"/><path fill="#A0A0A0" d="M134 11h-1c-1.104 0-2 .896-2 2v3c0 .553.447 1 1 1h3c.553 0 1-.447 1-1v-3c0-1.104-.896-2-2-2zm-.5 5c-.276 0-.5-.224-.5-.5s.224-.5.5-.5.5.224.5.5-.224.5-.5.5zm1.5-2h-3v-.5c0-.828.672-1.5 1.5-1.5s1.5.672 1.5 1.5v.5z"/><path fill="#9600FF" d="M168 11h-1c-1.104 0-2 .896-2 2v3c0 .553.447 1 1 1h3c.553 0 1-.447 1-1v-3c0-1.104-.896-2-2-2zm-.5 5c-.276 0-.5-.224-.5-.5s.224-.5.5-.5.5.224.5.5-.224.5-.5.5zm1.5-2h-3v-.5c0-.828.672-1.5 1.5-1.5s1.5.672 1.5 1.5v.5z"/><path fill="#C90" d="M202 11h-1c-1.104 0-2 .896-2 2v3c0 .553.447 1 1 1h3c.553 0 1-.447 1-1v-3c0-1.104-.896-2-2-2zm-.5 5c-.276 0-.5-.224-.5-.5s.224-.5.5-.5.5.224.5.5-.224.5-.5.5zm1.5-2h-3v-.5c0-.828.672-1.5 1.5-1.5s1.5.672 1.5 1.5v.5z"/></g></g><g><defs><path id="y" d="M0 0v204h238V0H0zm35 186c0 1.104-.896 2-2 2h-3c-1.104 0-2-.896-2-2v-4c0-1.104.896-2 2-2h3c1.104 0 2 .896 2 2v4zm17 0c0 1.104-.896 2-2 2h-3c-1.104 0-2-.896-2-2v-4c0-1.104.896-2 2-2h3c1.104 0 2 .896 2 2v4z"/></defs><clipPath id="z"><use xlink:href="#y" overflow="visible"/></clipPath><g clip-path="url(#z)"><path fill="#9600FF" d="M3.994 173.993v2.997h.51c.044-.143.122-.27.233-.492.112-.224.24-.436.387-.635.146-.2.305-.378.478-.535s.34-.245.5-.263c.204-.022.418-.036.642-.043s.41-.01.562-.01h.423v7.604c0 .192-.04.347-.114.463-.076.114-.193.202-.354.263-.106.043-.3.078-.58.106s-.548.046-.686.056v.5h5.01v-.5c-.156-.006-.435-.035-.714-.092-.28-.057-.463-.102-.55-.135-.17-.07-.29-.17-.358-.3-.068-.13-.102-.272-.102-.428v-7.54h.423c.195 0 .406.004.634.013s.417.022.568.04c.16.022.327.11.5.263.172.152.33.33.477.535.14.195.27.402.382.62.115.22.194.352.237.507h.503v-2.997H3.994z"/></g><g clip-path="url(#z)"><path fill="#9600FF" d="M20.994 173.993v2.997h.51c.044-.143.122-.27.233-.492.112-.224.24-.436.387-.635s.305-.378.478-.535.34-.245.5-.263c.204-.022.418-.036.642-.043.223-.007.41-.01.56-.01h.425v7.604c0 .192-.04.347-.114.463-.076.114-.193.202-.354.263-.107.043-.3.078-.58.106s-.548.046-.686.056v.5h5.01v-.5c-.157-.006-.436-.035-.714-.092-.28-.057-.464-.102-.552-.135-.17-.07-.29-.17-.357-.3-.067-.13-.102-.272-.102-.428v-7.54h.424c.194 0 .406.004.635.013.227.01.416.022.567.04.16.022.327.11.5.263.172.152.33.33.477.535.142.195.27.402.383.62.114.22.193.352.237.507h.503v-2.997h-9.013z"/></g><g clip-path="url(#z)"><path fill="#A0A0A0" d="M37.994 173.993v2.997h.51c.044-.143.122-.27.233-.492.112-.224.24-.436.387-.635s.305-.378.478-.535.34-.245.5-.263c.204-.022.418-.036.642-.043.223-.007.41-.01.56-.01h.425v7.604c0 .192-.04.347-.114.463-.076.114-.193.202-.354.263-.107.043-.3.078-.58.106s-.548.046-.686.056v.5h5.01v-.5c-.157-.006-.436-.035-.714-.092-.28-.057-.464-.102-.552-.135-.17-.07-.29-.17-.357-.3-.067-.13-.102-.272-.102-.428v-7.54h.424c.194 0 .406.004.635.013.227.01.416.022.567.04.16.022.327.11.5.263.172.152.33.33.477.535.142.195.27.402.383.62.114.22.193.352.237.507h.503v-2.997h-9.013z"/></g><path fill="#9600FF" d="M32 181h-1c-1.104 0-2 .896-2 2v3c0 .553.447 1 1 1h3c.553 0 1-.447 1-1v-3c0-1.104-.896-2-2-2zm-.5 5c-.276 0-.5-.224-.5-.5s.224-.5.5-.5.5.224.5.5-.224.5-.5.5zm1.5-2h-3v-.5c0-.828.672-1.5 1.5-1.5s1.5.672 1.5 1.5v.5z"/><path fill="#A0A0A0" d="M49 181h-1c-1.104 0-2 .896-2 2v3c0 .553.447 1 1 1h3c.553 0 1-.447 1-1v-3c0-1.104-.896-2-2-2zm-.5 5c-.276 0-.5-.224-.5-.5s.224-.5.5-.5.5.224.5.5-.224.5-.5.5zm1.5-2h-3v-.5c0-.828.672-1.5 1.5-1.5s1.5.672 1.5 1.5v.5z"/><defs><path id="A" d="M0 0v204h238V0H0zm35 169c0 1.104-.896 2-2 2h-3c-1.104 0-2-.896-2-2v-4c0-1.104.896-2 2-2h3c1.104 0 2 .896 2 2v4zm17 0c0 1.104-.896 2-2 2h-3c-1.104 0-2-.896-2-2v-4c0-1.104.896-2 2-2h3c1.104 0 2 .896 2 2v4z"/></defs><clipPath id="B"><use xlink:href="#A" overflow="visible"/></clipPath><g clip-path="url(#B)"><path fill="#A0A0A0" d="M8.5 155c-3.59 0-6.5 2.91-6.5 6.5s2.91 6.5 6.5 6.5 6.5-2.91 6.5-6.5-2.91-6.5-6.5-6.5zm0 12c-3.038 0-5.5-2.463-5.5-5.5s2.462-5.5 5.5-5.5 5.5 2.463 5.5 5.5-2.462 5.5-5.5 5.5zM7 165l4.5-3.5L7 158v7z"/></g><g clip-path="url(#B)"><path fill="#A0A0A0" d="M25.5 155c-3.59 0-6.5 2.91-6.5 6.5s2.91 6.5 6.5 6.5 6.5-2.91 6.5-6.5-2.91-6.5-6.5-6.5zm0 12c-3.037 0-5.5-2.463-5.5-5.5s2.463-5.5 5.5-5.5 5.5 2.463 5.5 5.5-2.463 5.5-5.5 5.5zm-1.5-2l4.5-3.5L24 158v7z"/></g><g clip-path="url(#B)"><path fill="#A0A0A0" d="M42.5 155c-3.59 0-6.5 2.91-6.5 6.5s2.91 6.5 6.5 6.5 6.5-2.91 6.5-6.5-2.91-6.5-6.5-6.5zm0 12c-3.037 0-5.5-2.463-5.5-5.5s2.463-5.5 5.5-5.5 5.5 2.463 5.5 5.5-2.463 5.5-5.5 5.5zm-1.5-2l4.5-3.5L41 158v7z"/></g><g><path fill="#A0A0A0" d="M32 164h-1c-1.104 0-2 .896-2 2v3c0 .553.447 1 1 1h3c.553 0 1-.447 1-1v-3c0-1.104-.896-2-2-2zm-.5 5c-.276 0-.5-.224-.5-.5s.224-.5.5-.5.5.224.5.5-.224.5-.5.5zm1.5-2h-3v-.5c0-.828.672-1.5 1.5-1.5s1.5.672 1.5 1.5v.5zM49 164h-1c-1.104 0-2 .896-2 2v3c0 .553.447 1 1 1h3c.553 0 1-.447 1-1v-3c0-1.104-.896-2-2-2zm-.5 5c-.276 0-.5-.224-.5-.5s.224-.5.5-.5.5.224.5.5-.224.5-.5.5zm1.5-2h-3v-.5c0-.828.672-1.5 1.5-1.5s1.5.672 1.5 1.5v.5z"/></g><g><defs><path id="C" d="M0 0v204h238V0H0zm35 152c0 1.104-.896 2-2 2h-3c-1.104 0-2-.896-2-2v-4c0-1.104.896-2 2-2h3c1.104 0 2 .896 2 2v4zm17 0c0 1.104-.896 2-2 2h-3c-1.104 0-2-.896-2-2v-4c0-1.104.896-2 2-2h3c1.104 0 2 .896 2 2v4z"/></defs><clipPath id="D"><use xlink:href="#C" overflow="visible"/></clipPath><g clip-path="url(#D)"><defs><path id="E" d="M10.5 140L4 143.25V147l3.5 1.75 6.5-3.25v-3.75L10.5 140zM7 147.375l-2-1v-2l2 1v2zM5.75 143.5l4.75-2.375 1.75.875-4.75 2.375-1.75-.875zm7.25 1.375l-5 2.5v-2l5-2.5v2z"/></defs><clipPath id="F"><use xlink:href="#E" overflow="visible"/></clipPath><g clip-path="url(#F)"><path fill="#C90" d="M0 136h17v17H0z"/></g></g><g clip-path="url(#D)"><defs><path id="G" d="M27.5 140l-6.5 3.25V147l3.5 1.75 6.5-3.25v-3.75L27.5 140zm-3.5 7.375l-2-1v-2l2 1v2zm-1.25-3.875l4.75-2.375 1.75.875-4.75 2.375-1.75-.875zm7.25 1.375l-5 2.5v-2l5-2.5v2z"/></defs><clipPath id="H"><use xlink:href="#G" overflow="visible"/></clipPath><g clip-path="url(#H)"><path fill="#C90" d="M17 136h17v17H17z"/></g></g><g clip-path="url(#D)"><defs><path id="I" d="M44.5 140l-6.5 3.25V147l3.5 1.75 6.5-3.25v-3.75L44.5 140zm-3.5 7.375l-2-1v-2l2 1v2zm-1.25-3.875l4.75-2.375 1.75.875-4.75 2.375-1.75-.875zm7.25 1.375l-5 2.5v-2l5-2.5v2z"/></defs><clipPath id="J"><use xlink:href="#I" overflow="visible"/></clipPath><g clip-path="url(#J)"><path fill="#A0A0A0" d="M34 136h17v17H34z"/></g></g><g><path fill="#C90" d="M32 147h-1c-1.104 0-2 .896-2 2v3c0 .553.447 1 1 1h3c.553 0 1-.447 1-1v-3c0-1.104-.896-2-2-2zm-.5 5c-.276 0-.5-.224-.5-.5s.224-.5.5-.5.5.224.5.5-.224.5-.5.5zm1.5-2h-3v-.5c0-.828.672-1.5 1.5-1.5s1.5.672 1.5 1.5v.5z"/><path fill="#A0A0A0" d="M49 147h-1c-1.104 0-2 .896-2 2v3c0 .553.447 1 1 1h3c.553 0 1-.447 1-1v-3c0-1.104-.896-2-2-2zm-.5 5c-.276 0-.5-.224-.5-.5s.224-.5.5-.5.5.224.5.5-.224.5-.5.5zm1.5-2h-3v-.5c0-.828.672-1.5 1.5-1.5s1.5.672 1.5 1.5v.5z"/></g></g><g><defs><path id="K" d="M0 0v204h238V0H0zm35 135c0 1.104-.896 2-2 2h-3c-1.104 0-2-.896-2-2v-4c0-1.104.896-2 2-2h3c1.104 0 2 .896 2 2v4zm17 0c0 1.104-.896 2-2 2h-3c-1.104 0-2-.896-2-2v-4c0-1.104.896-2 2-2h3c1.104 0 2 .896 2 2v4z"/></defs><clipPath id="L"><use xlink:href="#K" overflow="visible"/></clipPath><g clip-path="url(#L)"><defs><path id="M" d="M10.5 119.75L4 123v10.25L7.5 135l6.5-3.25V121.5l-3.5-1.75zM7 133.625l-2-1v-2l2 1v2zm0-3.25l-2-1v-2l2 1v2zm0-3.25l-2-1v-2l2 1v2zm-1.25-3.875l4.75-2.375 1.75.875-4.75 2.375-1.75-.875zm7.25 7.875l-5 2.5v-2l5-2.5v2zm0-3.25l-5 2.5v-2l5-2.5v2zm0-3.25l-5 2.5v-2l5-2.5v2z"/></defs><clipPath id="N"><use xlink:href="#M" overflow="visible"/></clipPath><g clip-path="url(#N)"><path fill="#C90" d="M0 119h17v17H0z"/></g></g><g clip-path="url(#L)"><defs><path id="O" d="M27.5 119.75L21 123v10.25l3.5 1.75 6.5-3.25V121.5l-3.5-1.75zM24 133.625l-2-1v-2l2 1v2zm0-3.25l-2-1v-2l2 1v2zm0-3.25l-2-1v-2l2 1v2zm-1.25-3.875l4.75-2.375 1.75.875-4.75 2.375-1.75-.875zm7.25 7.875l-5 2.5v-2l5-2.5v2zm0-3.25l-5 2.5v-2l5-2.5v2zm0-3.25l-5 2.5v-2l5-2.5v2z"/></defs><clipPath id="P"><use xlink:href="#O" overflow="visible"/></clipPath><g clip-path="url(#P)"><path fill="#C90" d="M17 119h17v17H17z"/></g></g><g clip-path="url(#L)"><defs><path id="Q" d="M44.5 119.75L38 123v10.25l3.5 1.75 6.5-3.25V121.5l-3.5-1.75zM41 133.625l-2-1v-2l2 1v2zm0-3.25l-2-1v-2l2 1v2zm0-3.25l-2-1v-2l2 1v2zm-1.25-3.875l4.75-2.375 1.75.875-4.75 2.375-1.75-.875zm7.25 7.875l-5 2.5v-2l5-2.5v2zm0-3.25l-5 2.5v-2l5-2.5v2zm0-3.25l-5 2.5v-2l5-2.5v2z"/></defs><clipPath id="R"><use xlink:href="#Q" overflow="visible"/></clipPath><g clip-path="url(#R)"><path fill="#A0A0A0" d="M34 119h17v17H34z"/></g></g><g><path fill="#C90" d="M32 130h-1c-1.104 0-2 .896-2 2v3c0 .553.447 1 1 1h3c.553 0 1-.447 1-1v-3c0-1.104-.896-2-2-2zm-.5 5c-.276 0-.5-.224-.5-.5s.224-.5.5-.5.5.224.5.5-.224.5-.5.5zm1.5-2h-3v-.5c0-.828.672-1.5 1.5-1.5s1.5.672 1.5 1.5v.5z"/><path fill="#A0A0A0" d="M49 130h-1c-1.104 0-2 .896-2 2v3c0 .553.447 1 1 1h3c.553 0 1-.447 1-1v-3c0-1.104-.896-2-2-2zm-.5 5c-.276 0-.5-.224-.5-.5s.224-.5.5-.5.5.224.5.5-.224.5-.5.5zm1.5-2h-3v-.5c0-.828.672-1.5 1.5-1.5s1.5.672 1.5 1.5v.5z"/></g></g><g><defs><path id="S" d="M0 0v204h238V0H0zm35 118c0 1.104-.896 2-2 2h-3c-1.104 0-2-.896-2-2v-4c0-1.104.896-2 2-2h3c1.104 0 2 .896 2 2v4zm17 0c0 1.104-.896 2-2 2h-3c-1.104 0-2-.896-2-2v-4c0-1.104.896-2 2-2h3c1.104 0 2 .896 2 2v4z"/></defs><clipPath id="T"><use xlink:href="#S" overflow="visible"/></clipPath><g clip-path="url(#T)"><defs><path id="U" d="M8.5 103.75L2 107v7l6.5 3.25L15 114v-7l-6.5-3.25zm0 1.125l1.75.875-1.75.875-1.75-.875 1.75-.875zm-3.5 9.5l-2-1v-2l2 1v2zm0-3.25l-2-1v-2l2 1v2zm-1.25-3.875l1.875-.938 1.75.875-1.875.938-1.75-.875zM8 115.875l-2-1v-2l2 1v2zm0-3.25l-2-1v-2l2 1v2zm-1.375-3.937l1.875-.938 1.875.938-1.875.937-1.875-.937zM11 114.875l-2 1v-2l2-1v2zm0-3.25l-2 1v-2l2-1v2zm-1.375-4.437l1.75-.875 1.875.938-1.75.876-1.875-.938zM14 113.375l-2 1v-2l2-1v2zm0-3.25l-2 1v-2l2-1v2z"/></defs><clipPath id="V"><use xlink:href="#U" overflow="visible"/></clipPath><g clip-path="url(#V)"><path fill="#9600FF" d="M0 102h17v17H0z"/></g></g><g clip-path="url(#T)"><defs><path id="W" d="M25.5 103.75L19 107v7l6.5 3.25L32 114v-7l-6.5-3.25zm0 1.125l1.75.875-1.75.875-1.75-.875 1.75-.875zm-3.5 9.5l-2-1v-2l2 1v2zm0-3.25l-2-1v-2l2 1v2zm-1.25-3.875l1.875-.938 1.75.875-1.875.938-1.75-.875zm4.25 8.625l-2-1v-2l2 1v2zm0-3.25l-2-1v-2l2 1v2zm-1.375-3.937l1.875-.938 1.875.938-1.875.938-1.875-.938zM28 114.875l-2 1v-2l2-1v2zm0-3.25l-2 1v-2l2-1v2zm-1.375-4.437l1.75-.875 1.875.938-1.75.876-1.875-.938zM31 113.375l-2 1v-2l2-1v2zm0-3.25l-2 1v-2l2-1v2z"/></defs><clipPath id="X"><use xlink:href="#W" overflow="visible"/></clipPath><g clip-path="url(#X)"><path fill="#9600FF" d="M17 102h17v17H17z"/></g></g><g clip-path="url(#T)"><defs><path id="Y" d="M42.5 103.75L36 107v7l6.5 3.25L49 114v-7l-6.5-3.25zm0 1.125l1.75.875-1.75.875-1.75-.875 1.75-.875zm-3.5 9.5l-2-1v-2l2 1v2zm0-3.25l-2-1v-2l2 1v2zm-1.25-3.875l1.875-.938 1.75.875-1.875.938-1.75-.875zm4.25 8.625l-2-1v-2l2 1v2zm0-3.25l-2-1v-2l2 1v2zm-1.375-3.937l1.875-.938 1.875.938-1.875.938-1.875-.938zM45 114.875l-2 1v-2l2-1v2zm0-3.25l-2 1v-2l2-1v2zm-1.375-4.437l1.75-.875 1.875.938-1.75.876-1.875-.938zM48 113.375l-2 1v-2l2-1v2zm0-3.25l-2 1v-2l2-1v2z"/></defs><clipPath id="Z"><use xlink:href="#Y" overflow="visible"/></clipPath><g clip-path="url(#Z)"><path fill="#A0A0A0" d="M34 102h17v17H34z"/></g></g><g><path fill="#9600FF" d="M32 113h-1c-1.104 0-2 .896-2 2v3c0 .553.447 1 1 1h3c.553 0 1-.447 1-1v-3c0-1.104-.896-2-2-2zm-.5 5c-.276 0-.5-.224-.5-.5s.224-.5.5-.5.5.224.5.5-.224.5-.5.5zm1.5-2h-3v-.5c0-.828.672-1.5 1.5-1.5s1.5.672 1.5 1.5v.5z"/><path fill="#A0A0A0" d="M49 113h-1c-1.104 0-2 .896-2 2v3c0 .553.447 1 1 1h3c.553 0 1-.447 1-1v-3c0-1.104-.896-2-2-2zm-.5 5c-.276 0-.5-.224-.5-.5s.224-.5.5-.5.5.224.5.5-.224.5-.5.5zm1.5-2h-3v-.5c0-.828.672-1.5 1.5-1.5s1.5.672 1.5 1.5v.5z"/></g></g><g><defs><path id="aa" d="M0 0v98.5L2.5 96h2L8 99.5v2.5H0v102h238V0H0zm25 102h-8v-3.5l2.5-2.5h2l3.5 3.5v2.5zm17 0h-7.277c-.347.596-.984 1-1.723 1h-3c-1.104 0-2-.896-2-2v-4c0-1.104.896-2 2-2h3c1.104 0 2 .896 2 2v.5l1.5-1.5h2l3.5 3.5v2.5zm10-1c0 1.104-.896 2-2 2h-3c-1.104 0-2-.896-2-2v-4c0-1.104.896-2 2-2h3c1.104 0 2 .896 2 2v4z"/></defs><clipPath id="ab"><use xlink:href="#aa" overflow="visible"/></clipPath><g clip-path="url(#ab)"><defs><path id="ac" d="M8.5 86.75L2 90v7l6.5 3.25L15 97v-7l-6.5-3.25zM8 98.875l-5-2.5v-5.25l5 2.5v5.25zM3.75 90.25l4.75-2.375 4.75 2.375-4.75 2.375-4.75-2.375zM14 96.375l-5 2.5v-5.25l5-2.5v5.25z"/></defs><clipPath id="ad"><use xlink:href="#ac" overflow="visible"/></clipPath><g clip-path="url(#ad)"><path fill="#7DA01F" d="M0 85h17v17H0z"/></g></g><g clip-path="url(#ab)"><defs><path id="ae" d="M25.5 86.75L19 90v7l6.5 3.25L32 97v-7l-6.5-3.25zM25 98.875l-5-2.5v-5.25l5 2.5v5.25zm-4.25-8.625l4.75-2.375 4.75 2.375-4.75 2.375-4.75-2.375zM31 96.375l-5 2.5v-5.25l5-2.5v5.25z"/></defs><clipPath id="af"><use xlink:href="#ae" overflow="visible"/></clipPath><g clip-path="url(#af)"><path fill="#7DA01F" d="M17 85h17v17H17z"/></g></g><g clip-path="url(#ab)"><defs><path id="ag" d="M42.5 86.75L36 90v7l6.5 3.25L49 97v-7l-6.5-3.25zM42 98.875l-5-2.5v-5.25l5 2.5v5.25zm-4.25-8.625l4.75-2.375 4.75 2.375-4.75 2.375-4.75-2.375zM48 96.375l-5 2.5v-5.25l5-2.5v5.25z"/></defs><clipPath id="ah"><use xlink:href="#ag" overflow="visible"/></clipPath><g clip-path="url(#ah)"><path fill="#A0A0A0" d="M34 85h17v17H34z"/></g></g><g><path fill="#7DA01F" d="M32 96h-1c-1.104 0-2 .896-2 2v3c0 .553.447 1 1 1h3c.553 0 1-.447 1-1v-3c0-1.104-.896-2-2-2zm-.5 5c-.276 0-.5-.224-.5-.5s.224-.5.5-.5.5.224.5.5-.224.5-.5.5zm1.5-2h-3v-.5c0-.828.672-1.5 1.5-1.5s1.5.672 1.5 1.5v.5z"/><path fill="#A0A0A0" d="M49 96h-1c-1.104 0-2 .896-2 2v3c0 .553.447 1 1 1h3c.553 0 1-.447 1-1v-3c0-1.104-.896-2-2-2zm-.5 5c-.276 0-.5-.224-.5-.5s.224-.5.5-.5.5.224.5.5-.224.5-.5.5zm1.5-2h-3v-.5c0-.828.672-1.5 1.5-1.5s1.5.672 1.5 1.5v.5z"/></g><g><path fill="#7DA01F" d="M6.58 99.46L4.5 97.38l-.707.706L5.207 99.5l-1.414 1.414.707.707 2.12-2.12-.04-.04zM2.5 97.38L.38 99.5l2.12 2.12.707-.706L1.793 99.5l1.414-1.414-.707-.707zM19.5 97.38l-2.12 2.12 2.12 2.12.707-.706-1.414-1.414 1.414-1.414-.707-.707zm2 0l-.707.706 1.414 1.414-1.414 1.414.707.707 2.12-2.12-2.12-2.12z"/><path fill="#A0A0A0" d="M36.5 97.38l-2.12 2.12 2.12 2.12.707-.706-1.414-1.414 1.414-1.414-.707-.707zm2 0l-.707.706 1.414 1.414-1.414 1.414.707.707 2.12-2.12-2.12-2.12z"/></g></g><g><defs><path id="ai" d="M0 0v204h238V0H0zm35 84c0 1.104-.896 2-2 2h-3c-1.104 0-2-.896-2-2v-4c0-1.104.896-2 2-2h3c1.104 0 2 .896 2 2v4zm17 0c0 1.104-.896 2-2 2h-3c-1.104 0-2-.896-2-2v-4c0-1.104.896-2 2-2h3c1.104 0 2 .896 2 2v4z"/></defs><clipPath id="aj"><use xlink:href="#ai" overflow="visible"/></clipPath><g clip-path="url(#aj)"><defs><path id="ak" d="M8.5 69.75L2 73v7l6.5 3.25L15 80v-7l-6.5-3.25zM8 81.875l-5-2.5v-5.25l5 2.5v5.25zM3.75 73.25l4.75-2.375 4.75 2.375-4.75 2.375-4.75-2.375zM14 79.375l-5 2.5v-5.25l5-2.5v5.25z"/></defs><clipPath id="al"><use xlink:href="#ak" overflow="visible"/></clipPath><g clip-path="url(#al)"><path fill="#7DA01F" d="M0 68h17v17H0z"/></g></g><g clip-path="url(#aj)"><defs><path id="am" d="M25.5 69.75L19 73v7l6.5 3.25L32 80v-7l-6.5-3.25zM25 81.875l-5-2.5v-5.25l5 2.5v5.25zm-4.25-8.625l4.75-2.375 4.75 2.375-4.75 2.375-4.75-2.375zM31 79.375l-5 2.5v-5.25l5-2.5v5.25z"/></defs><clipPath id="an"><use xlink:href="#am" overflow="visible"/></clipPath><g clip-path="url(#an)"><path fill="#7DA01F" d="M17 68h17v17H17z"/></g></g><g clip-path="url(#aj)"><defs><path id="ao" d="M42.5 69.75L36 73v7l6.5 3.25L49 80v-7l-6.5-3.25zM42 81.875l-5-2.5v-5.25l5 2.5v5.25zm-4.25-8.625l4.75-2.375 4.75 2.375-4.75 2.375-4.75-2.375zM48 79.375l-5 2.5v-5.25l5-2.5v5.25z"/></defs><clipPath id="ap"><use xlink:href="#ao" overflow="visible"/></clipPath><g clip-path="url(#ap)"><path fill="#A0A0A0" d="M34 68h17v17H34z"/></g></g><g><path fill="#7DA01F" d="M32 79h-1c-1.104 0-2 .896-2 2v3c0 .553.447 1 1 1h3c.553 0 1-.447 1-1v-3c0-1.104-.896-2-2-2zm-.5 5c-.276 0-.5-.224-.5-.5s.224-.5.5-.5.5.224.5.5-.224.5-.5.5zm1.5-2h-3v-.5c0-.828.672-1.5 1.5-1.5s1.5.672 1.5 1.5v.5z"/><path fill="#A0A0A0" d="M49 79h-1c-1.104 0-2 .896-2 2v3c0 .553.447 1 1 1h3c.553 0 1-.447 1-1v-3c0-1.104-.896-2-2-2zm-.5 5c-.276 0-.5-.224-.5-.5s.224-.5.5-.5.5.224.5.5-.224.5-.5.5zm1.5-2h-3v-.5c0-.828.672-1.5 1.5-1.5s1.5.672 1.5 1.5v.5z"/></g></g><g><defs><path id="aq" d="M0 0v64.5L2.5 62h2L8 65.5V68H0v136h238V0H0zm25 68h-8v-3.5l2.5-2.5h2l3.5 3.5V68zm17 0h-7.277c-.347.595-.984 1-1.723 1h-3c-1.104 0-2-.896-2-2v-4c0-1.104.896-2 2-2h3c1.104 0 2 .896 2 2v.5l1.5-1.5h2l3.5 3.5V68zm10-1c0 1.104-.896 2-2 2h-3c-1.104 0-2-.896-2-2v-4c0-1.104.896-2 2-2h3c1.104 0 2 .896 2 2v4z"/></defs><clipPath id="ar"><use xlink:href="#aq" overflow="visible"/></clipPath><g clip-path="url(#ar)"><defs><path id="as" d="M8.5 52.75L2 56v7l6.5 3.25L15 63v-7z"/></defs><clipPath id="at"><use xlink:href="#as" overflow="visible"/></clipPath><g clip-path="url(#at)"><path fill="#4DA6FF" d="M0 51h17v17H0z"/></g><g clip-path="url(#at)"><path fill="#A6D3FF" d="M0 55v13h8.5v-8.75"/></g><g clip-path="url(#at)"><path fill="#26537F" d="M8.5 59.25V68H17V55"/></g></g><g clip-path="url(#ar)"><defs><path id="au" d="M25.5 52.75L19 56v7l6.5 3.25L32 63v-7z"/></defs><clipPath id="av"><use xlink:href="#au" overflow="visible"/></clipPath><g clip-path="url(#av)"><path fill="#4DA6FF" d="M17 51h17v17H17z"/></g><g clip-path="url(#av)"><path fill="#A6D3FF" d="M17 55v13h8.5v-8.75"/></g><g clip-path="url(#av)"><path fill="#26537F" d="M25.5 59.25V68H34V55"/></g></g><g clip-path="url(#ar)"><defs><path id="aw" d="M42.5 52.75L36 56v7l6.5 3.25L49 63v-7z"/></defs><clipPath id="ax"><use xlink:href="#aw" overflow="visible"/></clipPath><g clip-path="url(#ax)"><path fill="#A0A0A0" d="M34 51h17v17H34z"/></g><g clip-path="url(#ax)"><path fill="#D0D0D0" d="M34 55v13h8.5v-8.75"/></g><g clip-path="url(#ax)"><path fill="#505050" d="M42.5 59.25V68H51V55"/></g></g><g><path fill="#4DA6FF" d="M32 62h-1c-1.104 0-2 .896-2 2v3c0 .553.447 1 1 1h3c.553 0 1-.447 1-1v-3c0-1.104-.896-2-2-2zm-.5 5c-.276 0-.5-.224-.5-.5s.224-.5.5-.5.5.224.5.5-.224.5-.5.5zm1.5-2h-3v-.5c0-.828.672-1.5 1.5-1.5s1.5.672 1.5 1.5v.5z"/><path fill="#A0A0A0" d="M49 62h-1c-1.104 0-2 .896-2 2v3c0 .553.447 1 1 1h3c.553 0 1-.447 1-1v-3c0-1.104-.896-2-2-2zm-.5 5c-.276 0-.5-.224-.5-.5s.224-.5.5-.5.5.224.5.5-.224.5-.5.5zm1.5-2h-3v-.5c0-.828.672-1.5 1.5-1.5s1.5.672 1.5 1.5v.5z"/></g><g><path fill="#4DA6FF" d="M2.5 63.38L.38 65.5l2.12 2.12.707-.706L1.793 65.5l1.414-1.414-.707-.707zm4.08 2.08L4.5 63.38l-.707.706L5.207 65.5l-1.414 1.414.707.707 2.12-2.12-.04-.04zM19.5 63.38l-2.12 2.12 2.12 2.12.707-.706-1.414-1.414 1.414-1.414-.707-.707zm4.08 2.08l-2.08-2.08-.707.706 1.414 1.414-1.414 1.414.707.707 2.12-2.12-.04-.04z"/><path fill="#A0A0A0" d="M36.5 63.38l-2.12 2.12 2.12 2.12.707-.706-1.414-1.414 1.414-1.414-.707-.707zm4.08 2.08l-2.08-2.08-.707.706 1.414 1.414-1.414 1.414.707.707 2.12-2.12-.04-.04z"/></g></g><g><defs><path id="ay" d="M0 0v204h238V0H0zm35 50c0 1.104-.896 2-2 2h-3c-1.104 0-2-.896-2-2v-4c0-1.104.896-2 2-2h3c1.104 0 2 .896 2 2v4zm17 0c0 1.104-.896 2-2 2h-3c-1.104 0-2-.896-2-2v-4c0-1.104.896-2 2-2h3c1.104 0 2 .896 2 2v4z"/></defs><clipPath id="az"><use xlink:href="#ay" overflow="visible"/></clipPath><g clip-path="url(#az)"><defs><path id="aA" d="M8.5 35.75L2 39v7l6.5 3.25L15 46v-7z"/></defs><clipPath id="aB"><use xlink:href="#aA" overflow="visible"/></clipPath><g clip-path="url(#aB)"><path fill="#4DA6FF" d="M0 34h17v17H0z"/></g><g clip-path="url(#aB)"><path fill="#A6D3FF" d="M0 38v13h8.5v-8.75"/></g><g clip-path="url(#aB)"><path fill="#26537F" d="M8.5 42.25V51H17V38"/></g></g><g clip-path="url(#az)"><defs><path id="aC" d="M25.5 35.75L19 39v7l6.5 3.25L32 46v-7z"/></defs><clipPath id="aD"><use xlink:href="#aC" overflow="visible"/></clipPath><g clip-path="url(#aD)"><path fill="#4DA6FF" d="M17 34h17v17H17z"/></g><g clip-path="url(#aD)"><path fill="#A6D3FF" d="M17 38v13h8.5v-8.75"/></g><g clip-path="url(#aD)"><path fill="#26537F" d="M25.5 42.25V51H34V38"/></g></g><g clip-path="url(#az)"><defs><path id="aE" d="M42.5 35.75L36 39v7l6.5 3.25L49 46v-7z"/></defs><clipPath id="aF"><use xlink:href="#aE" overflow="visible"/></clipPath><g clip-path="url(#aF)"><path fill="#A0A0A0" d="M34 34h17v17H34z"/></g><g clip-path="url(#aF)"><path fill="#D0D0D0" d="M34 38v13h8.5v-8.75"/></g><g clip-path="url(#aF)"><path fill="#505050" d="M42.5 42.25V51H51V38"/></g></g><g><path fill="#4DA6FF" d="M32 45h-1c-1.104 0-2 .896-2 2v3c0 .553.447 1 1 1h3c.553 0 1-.447 1-1v-3c0-1.104-.896-2-2-2zm-.5 5c-.276 0-.5-.224-.5-.5s.224-.5.5-.5.5.224.5.5-.224.5-.5.5zm1.5-2h-3v-.5c0-.828.672-1.5 1.5-1.5s1.5.672 1.5 1.5v.5z"/><path fill="#A0A0A0" d="M49 45h-1c-1.104 0-2 .896-2 2v3c0 .553.447 1 1 1h3c.553 0 1-.447 1-1v-3c0-1.104-.896-2-2-2zm-.5 5c-.276 0-.5-.224-.5-.5s.224-.5.5-.5.5.224.5.5-.224.5-.5.5zm1.5-2h-3v-.5c0-.828.672-1.5 1.5-1.5s1.5.672 1.5 1.5v.5z"/></g></g><g><defs><path id="aG" d="M0 0v204h238V0H0zm35 33c0 1.104-.896 2-2 2h-3c-1.104 0-2-.896-2-2v-4c0-1.104.896-2 2-2h3c1.104 0 2 .896 2 2v4zm17 0c0 1.104-.896 2-2 2h-3c-1.104 0-2-.896-2-2v-4c0-1.104.896-2 2-2h3c1.104 0 2 .896 2 2v4z"/></defs><clipPath id="aH"><use xlink:href="#aG" overflow="visible"/></clipPath><g clip-path="url(#aH)"><defs><path id="aI" d="M8.5 18.75L2 22v7l6.5 3.25L15 29v-7z"/></defs><clipPath id="aJ"><use xlink:href="#aI" overflow="visible"/></clipPath><g clip-path="url(#aJ)"><path fill="#9600FF" d="M0 17h17v17H0z"/></g><g clip-path="url(#aJ)"><path fill="#CB80FF" d="M0 21v13h8.5v-8.75"/></g><g clip-path="url(#aJ)"><path fill="#7000BF" d="M8.5 25.25V34H17V21"/></g></g><g clip-path="url(#aH)"><defs><path id="aK" d="M25.5 18.75L19 22v7l6.5 3.25L32 29v-7z"/></defs><clipPath id="aL"><use xlink:href="#aK" overflow="visible"/></clipPath><g clip-path="url(#aL)"><path fill="#9600FF" d="M17 17h17v17H17z"/></g><g clip-path="url(#aL)"><path fill="#CB80FF" d="M17 21v13h8.5v-8.75"/></g><g clip-path="url(#aL)"><path fill="#7000BF" d="M25.5 25.25V34H34V21"/></g></g><g clip-path="url(#aH)"><defs><path id="aM" d="M42.5 18.75L36 22v7l6.5 3.25L49 29v-7z"/></defs><clipPath id="aN"><use xlink:href="#aM" overflow="visible"/></clipPath><g clip-path="url(#aN)"><path fill="#A0A0A0" d="M34 17h17v17H34z"/></g><g clip-path="url(#aN)"><path fill="#D0D0D0" d="M34 21v13h8.5v-8.75"/></g><g clip-path="url(#aN)"><path fill="#505050" d="M42.5 25.25V34H51V21"/></g></g><g><path fill="#9600FF" d="M32 28h-1c-1.104 0-2 .896-2 2v3c0 .553.447 1 1 1h3c.553 0 1-.447 1-1v-3c0-1.104-.896-2-2-2zm-.5 5c-.276 0-.5-.224-.5-.5s.224-.5.5-.5.5.224.5.5-.224.5-.5.5zm1.5-2h-3v-.5c0-.828.672-1.5 1.5-1.5s1.5.672 1.5 1.5v.5z"/><path fill="#A0A0A0" d="M49 28h-1c-1.104 0-2 .896-2 2v3c0 .553.447 1 1 1h3c.553 0 1-.447 1-1v-3c0-1.104-.896-2-2-2zm-.5 5c-.276 0-.5-.224-.5-.5s.224-.5.5-.5.5.224.5.5-.224.5-.5.5zm1.5-2h-3v-.5c0-.828.672-1.5 1.5-1.5s1.5.672 1.5 1.5v.5z"/></g></g><g><defs><path id="aO" d="M0 0v204h238V0H0zm35 16c0 1.104-.896 2-2 2h-3c-1.104 0-2-.896-2-2v-4c0-1.104.896-2 2-2h3c1.104 0 2 .896 2 2v4zm17 0c0 1.104-.896 2-2 2h-3c-1.104 0-2-.896-2-2v-4c0-1.104.896-2 2-2h3c1.104 0 2 .896 2 2v4z"/></defs><clipPath id="aP"><use xlink:href="#aO" overflow="visible"/></clipPath><g clip-path="url(#aP)"><circle fill="#9600FF" cx="8.5" cy="8.5" r="5.5"/></g><g clip-path="url(#aP)"><circle fill="#9600FF" cx="25.5" cy="8.5" r="5.5"/></g><g clip-path="url(#aP)"><circle fill="#A0A0A0" cx="42.5" cy="8.5" r="5.5"/></g><g><path fill="#9600FF" d="M32 11h-1c-1.104 0-2 .896-2 2v3c0 .553.447 1 1 1h3c.553 0 1-.447 1-1v-3c0-1.104-.896-2-2-2zm-.5 5c-.276 0-.5-.224-.5-.5s.224-.5.5-.5.5.224.5.5-.224.5-.5.5zm1.5-2h-3v-.5c0-.828.672-1.5 1.5-1.5s1.5.672 1.5 1.5v.5z"/><path fill="#A0A0A0" d="M49 11h-1c-1.104 0-2 .896-2 2v3c0 .553.447 1 1 1h3c.553 0 1-.447 1-1v-3c0-1.104-.896-2-2-2zm-.5 5c-.276 0-.5-.224-.5-.5s.224-.5.5-.5.5.224.5.5-.224.5-.5.5zm1.5-2h-3v-.5c0-.828.672-1.5 1.5-1.5s1.5.672 1.5 1.5v.5z"/></g></g></g></svg>