<svg xmlns="http://www.w3.org/2000/svg" xmlns:xlink="http://www.w3.org/1999/xlink" version="1.1" x="0px" y="0px" viewBox="0 0 100 100" enable-background="new 0 0 100 100" xml:space="preserve"><g><g><path fill="#000000" d="M49.409,72.189c-0.617,0-1.234-0.182-1.766-0.545c-2.436-1.672-14.744-10.473-17.983-19.698    c-1.66-4.733-1.237-9.235,1.19-12.68c2.251-3.161,6.005-5.042,10.049-5.042c3.137,0,6.089,1.081,8.531,3.086    c2.446-2.006,5.442-3.123,8.523-3.123c4.034,0,7.789,1.887,10.04,5.047c2.438,3.45,2.863,7.961,1.199,12.714    c-3.335,9.525-16.537,18.689-18.031,19.703C50.631,72.012,50.021,72.189,49.409,72.189z M40.898,40.467    c-2.029,0-3.882,0.901-4.956,2.409c-1.225,1.737-1.367,4.229-0.394,7.002c1.909,5.438,8.955,11.717,13.866,15.36    c4.739-3.504,11.966-9.873,13.886-15.352c0.978-2.792,0.835-5.292-0.398-7.038c-1.076-1.511-2.93-2.417-4.95-2.417    c-2.106,0-4.179,1.027-5.688,2.82l-0.454,0.539c-0.595,0.701-1.466,1.106-2.384,1.106c-0.005,0-0.008,0-0.013,0    c-0.923-0.003-1.797-0.416-2.388-1.125l-0.442-0.532C45.056,41.432,43.084,40.467,40.898,40.467z"></path></g><g><path fill="#000000" d="M22.825,68.381c-0.798,0-1.598-0.307-2.207-0.916L8.844,55.689c-1.219-1.219-1.219-3.195,0-4.413    l11.774-11.774c1.219-1.22,3.196-1.22,4.414,0c1.22,1.218,1.22,3.195,0,4.413l-9.567,9.569l9.567,9.568    c1.219,1.217,1.219,3.195,0,4.412C24.423,68.074,23.624,68.381,22.825,68.381z"></path></g><g><path fill="#000000" d="M76.029,68.381c-0.798,0-1.598-0.307-2.207-0.916c-1.218-1.219-1.218-3.195,0-4.412l9.568-9.568    l-9.567-9.569c-1.218-1.218-1.218-3.195,0-4.414c1.22-1.218,3.195-1.219,4.414,0.001l11.773,11.774c1.22,1.218,1.22,3.194,0,4.413    L78.236,67.465C77.627,68.074,76.827,68.381,76.029,68.381z"></path></g></g></svg>