<?xml version="1.0"?>
<svg width="99.99999999999999" height="99.99999999999999" xmlns="http://www.w3.org/2000/svg" xmlns:svg="http://www.w3.org/2000/svg">
 <g>
  <title>Layer 1</title>
  <g id="svg_1">
   <g id="svg_2">
    <path id="svg_3" d="m49.409,72.189003c-0.617001,0 -1.234001,-0.181999 -1.765999,-0.545006c-2.436001,-1.671997 -14.744003,-10.472996 -17.983002,-19.697998c-1.66,-4.732998 -1.237,-9.235001 1.190001,-12.68c2.251001,-3.160999 6.004999,-5.042 10.048998,-5.042c3.137001,0 6.089001,1.081001 8.531002,3.086002c2.445999,-2.006001 5.442001,-3.123001 8.522999,-3.123001c4.034,0 7.788998,1.887001 10.039997,5.047001c2.438004,3.449997 2.863007,7.960999 1.199005,12.714001c-3.334999,9.524998 -16.537003,18.688999 -18.031002,19.702999c-0.529999,0.361 -1.139999,0.538002 -1.751999,0.538002zm-8.511002,-31.722004c-2.028999,0 -3.882,0.901001 -4.955997,2.409c-1.225002,1.737 -1.367001,4.229 -0.394001,7.001999c1.909,5.438004 8.954998,11.717003 13.866001,15.360001c4.738998,-3.503998 11.966,-9.872997 13.885998,-15.351997c0.978001,-2.792 0.835003,-5.292 -0.397999,-7.038002c-1.076,-1.510998 -2.93,-2.417 -4.950001,-2.417c-2.105999,0 -4.179001,1.027 -5.688,2.82l-0.453999,0.539001c-0.595001,0.701 -1.466,1.105999 -2.384003,1.105999c-0.004997,0 -0.007999,0 -0.013,0c-0.922997,-0.002998 -1.796997,-0.416 -2.387997,-1.125l-0.442001,-0.532001c-1.527,-1.806999 -3.499001,-2.771999 -5.685001,-2.771999z" fill="#49a7e9"/>
   </g>
   <g id="svg_4">
    <path id="svg_5" d="m22.825001,68.380997c-0.798,0 -1.598001,-0.306999 -2.207001,-0.916l-11.774,-11.775997c-1.219,-1.218998 -1.219,-3.195 0,-4.412998l11.774,-11.774002c1.219,-1.219997 3.195999,-1.219997 4.414,0c1.220001,1.218002 1.220001,3.195 0,4.413002l-9.566999,9.569l9.566999,9.567997c1.219,1.216999 1.219,3.195004 0,4.411999c-0.608999,0.610001 -1.407999,0.917 -2.206999,0.917z" fill="#ff007f"/>
   </g>
   <g id="svg_6">
    <path id="svg_7" d="m76.028999,68.380997c-0.797997,0 -1.598,-0.306999 -2.207001,-0.916c-1.218002,-1.218994 -1.218002,-3.195 0,-4.411995l9.568001,-9.568001l-9.567001,-9.569c-1.217995,-1.217999 -1.217995,-3.195 0,-4.414001c1.220001,-1.217999 3.195,-1.218998 4.414001,0.000999l11.773003,11.774002c1.220001,1.217999 1.220001,3.194 0,4.412998l-11.774002,11.774998c-0.609001,0.609001 -1.408997,0.916 -2.207001,0.916z" fill="#ff007f"/>
   </g>
  </g>
 </g>
</svg>