<?xml version="1.0" encoding="UTF-8" standalone="no"?>
<svg
   xmlns:dc="http://purl.org/dc/elements/1.1/"
   xmlns:cc="http://creativecommons.org/ns#"
   xmlns:rdf="http://www.w3.org/1999/02/22-rdf-syntax-ns#"
   xmlns:svg="http://www.w3.org/2000/svg"
   xmlns="http://www.w3.org/2000/svg"
   xmlns:sodipodi="http://sodipodi.sourceforge.net/DTD/sodipodi-0.dtd"
   xmlns:inkscape="http://www.inkscape.org/namespaces/inkscape"
   width="99.99999999999999"
   height="99.99999999999999"
   id="svg3364"
   version="1.1"
   inkscape:version="0.91 r13725"
   sodipodi:docname="icon.svg"
   inkscape:export-filename="D:\REPOS\alm\resources\icon.png"
   inkscape:export-xdpi="89.099998"
   inkscape:export-ydpi="89.099998">
  <metadata
     id="metadata3381">
    <rdf:RDF>
      <cc:Work
         rdf:about="">
        <dc:format>image/svg+xml</dc:format>
        <dc:type
           rdf:resource="http://purl.org/dc/dcmitype/StillImage" />
        <dc:title></dc:title>
      </cc:Work>
    </rdf:RDF>
  </metadata>
  <defs
     id="defs3379" />
  <sodipodi:namedview
     pagecolor="#ffffff"
     bordercolor="#666666"
     borderopacity="1"
     objecttolerance="10"
     gridtolerance="10"
     guidetolerance="10"
     inkscape:pageopacity="0"
     inkscape:pageshadow="2"
     inkscape:window-width="2498"
     inkscape:window-height="1417"
     id="namedview3377"
     showgrid="false"
     inkscape:zoom="18.88"
     inkscape:cx="44.561154"
     inkscape:cy="36.573757"
     inkscape:window-x="54"
     inkscape:window-y="-8"
     inkscape:window-maximized="1"
     inkscape:current-layer="g4264" />
  <g
     id="g3366">
    <title
       id="title3368">Layer 1</title>
    <g
       id="svg_1">
      <g
         id="svg_4"
         style="fill:#49a7e9;fill-opacity:1"
         transform="translate(-4,0)">
        <path
           id="svg_5"
           d="m 22.825001,68.380997 c -0.798,0 -1.598001,-0.306999 -2.207001,-0.916 L 8.844,55.689 c -1.219,-1.218998 -1.219,-3.195 0,-4.412998 L 20.618,39.502 c 1.219,-1.219997 3.195999,-1.219997 4.414,0 1.220001,1.218002 1.220001,3.195 0,4.413002 l -9.566999,9.569 9.566999,9.567997 c 1.219,1.216999 1.219,3.195004 0,4.411999 -0.608999,0.610001 -1.407999,0.917 -2.206999,0.917 z"
           style="fill:#49a7e9;fill-opacity:1"
           inkscape:connector-curvature="0" />
      </g>
      <g
         id="svg_6"
         transform="translate(6,0)">
        <path
           id="svg_7"
           d="m 76.028999,68.380997 c -0.797997,0 -1.598,-0.306999 -2.207001,-0.916 -1.218002,-1.218994 -1.218002,-3.195 0,-4.411995 l 9.568001,-9.568001 -9.567001,-9.569 c -1.217995,-1.217999 -1.217995,-3.195 0,-4.414001 1.220001,-1.217999 3.195,-1.218998 4.414001,9.99e-4 l 11.773003,11.774002 c 1.220001,1.217999 1.220001,3.194 0,4.412998 L 78.236,67.464997 c -0.609001,0.609001 -1.408997,0.916 -2.207001,0.916 z"
           style="fill:#49a7e9;fill-opacity:1"
           inkscape:connector-curvature="0" />
      </g>
      <g
         id="g4199"
         transform="matrix(0.87752291,0,0,0.87752291,7.7533165,2.7912004)">
        <g
           id="g4264"
           style="fill:#5bc400;fill-opacity:1">
          <path
             style="fill:#5bc400;fill-opacity:1"
             id="path4207"
             d="M 72.838,66.361 C 56.863,66.167 54.843,76.853 54.676,81.194 c -0.044,1.081 0.72,2.03 1.783,2.232 4.271,0.809 15.14,1.222 18.497,-14.402 0.289,-1.354 -0.729,-2.646 -2.118,-2.663 z"
             inkscape:connector-curvature="0" />
          <path
             style="fill:#5bc400;fill-opacity:1"
             id="path4209"
             d="m 28.367,74.542 c -1.415,-0.009 -2.461,1.309 -2.144,2.688 2.811,12.03 11.141,12.135 14.858,11.538 1.124,-0.185 1.915,-1.187 1.845,-2.32 C 42.681,82.688 40.73,74.594 28.367,74.542 Z"
             inkscape:connector-curvature="0" />
          <path
             sodipodi:nodetypes="ccsccc"
             inkscape:connector-curvature="0"
             id="path4245"
             d="m 46.594269,65.364834 0,37.114326 c 0,0.9369 0.969965,1.97391 2.13173,1.97391 1.161766,0 2.225505,-1.06437 2.225505,-2.06074 l 0,-36.88849 z"
             style="fill:#5bc400;fill-opacity:1;fill-rule:evenodd;stroke:#000000;stroke-width:0;stroke-linecap:butt;stroke-linejoin:miter;stroke-miterlimit:4;stroke-dasharray:none;stroke-opacity:1" />
        </g>
        <g
           id="g4247">
          <path
             style="fill:#ff007f;fill-opacity:1"
             id="path4201"
             d="m 62.865,14.702 0,-5.572 c 0,-1.309 -1.134,-2.319 -2.435,-2.188 -3.698,0.396 -10.824,1.88 -15.791,7.442 2.26,1.476 4.052,3.014 5.353,4.288 3.875,-1.528 8.181,-2.855 12.873,-3.97 z"
             inkscape:connector-curvature="0" />
          <path
             style="fill:#ff007f;fill-opacity:1"
             id="path4203"
             d="m 39.976,23.647 c 0.351,-0.22 0.701,-0.44 1.063,-0.65 1.933,-1.142 4.023,-2.214 6.282,-3.207 -1.133,-1.037 -2.574,-2.197 -4.305,-3.304 -2.25,-1.45 -5.001,-2.812 -8.216,-3.7 -0.238,-0.07 -0.476,-0.096 -0.713,-0.096 -1.414,0 -2.636,1.134 -2.636,2.636 l 0,15.377 c 2.294,-2.575 5.141,-4.938 8.525,-7.056 z"
             inkscape:connector-curvature="0" />
          <path
             sodipodi:nodetypes="cccsccscccccccscssscsc"
             style="fill:#ff007f;fill-opacity:1"
             id="path4205"
             d="m 59.842,66.053 c 1.31,-0.062 2.092,-1.476 1.45,-2.619 l -2.083,-3.708 c 6.415,-2.645 10.738,-7.662 10.738,-13.409 0,-8.041 -2.628,-10.475 -4.279,-16.16 -1.019,-3.506 0.202,-7.997 1.282,-10.914 0.439,-1.177 -0.456,-2.373 -1.634,-2.373 -0.132,0 -0.264,0.018 -0.396,0.044 -0.703,0.158 -1.389,0.316 -2.064,0.483 -8.208,2.013 -16.494,4.895 -23.462,9.798 -5.747,4.042 -12.618,11.423 -11.73,19.138 0,5.747 4.323,10.755 10.738,13.4 l -2.083,3.708 c -0.642,1.143 0.141,2.557 1.45,2.618 0.422,0.018 0.878,0.035 1.361,0.035 2.038,0 4.526,-0.228 6.73,-1.063 l 0,0.777952 c 0,1.626 1.318,2.944 2.944,2.944 1.626,0 2.944,-1.318 2.944,-2.944 l 0,-0.783952 c 2.204,0.834 4.691,1.063 6.729,1.063 0.487,0 0.944,-0.008 1.365,-0.035 z"
             inkscape:connector-curvature="0" />
        </g>
      </g>
    </g>
  </g>
</svg>
